<svg xmlns="http://www.w3.org/2000/svg" viewBox="0 0 157.58 157.58">
  <title>Asset 2</title>
  <g>
    <path d="M78.49,6.49v144.6a72.3,72.3,0,0,0,0-144.6Z" fill="#e5effb"/>
    <path d="M78.79,157.58a78.79,78.79,0,1,1,78.79-78.79A78.88,78.88,0,0,1,78.79,157.58Zm0-148.22a69.43,69.43,0,1,0,69.43,69.43A69.5,69.5,0,0,0,78.79,9.36Z" fill="#69b3e4"/>
    <g opacity="0.45">
      <g>
        <g>
          <g>
            <g>
              <ellipse cx="78.24" cy="107.9" rx="2.75" ry="2.64" fill="#69b3e4"/>
              <path d="M78.24,110.83a2.93,2.93,0,1,1,3.06-2.93A3,3,0,0,1,78.24,110.83Zm0-5.28a2.35,2.35,0,1,0,2.46,2.35A2.41,2.41,0,0,0,78.24,105.55Z" fill="#69b3e4"/>
            </g>
            <g>
              <path d="M79.15,112.71c-.57,3.68-.89,26.46-.89,26.46s-.52-23-1.06-26.65-2.85-6.75,1.06-6.75S79.75,108.79,79.15,112.71Z" fill="#69b3e4"/>
              <path d="M78,139.17c0-.23-.53-23-1-26.61a22.41,22.41,0,0,0-.67-2.84c-.45-1.54-.8-2.75-.18-3.52a3.73,3.73,0,0,1,4.39,0c.6.78.23,2-.25,3.57a21.4,21.4,0,0,0-.75,3h0c-.56,3.62-.88,26.19-.88,26.42Zm.3-33.11a2.24,2.24,0,0,0-1.73.48c-.43.55-.11,1.64.29,3a21.32,21.32,0,0,1,.68,2.92c.26,1.8.52,8,.71,14,.15-5.92.37-12.06.64-13.84h0a22.54,22.54,0,0,1,.77-3.07c.41-1.35.77-2.52.34-3.06C79.71,106.22,79.16,106.06,78.26,106.06Z" fill="#69b3e4"/>
            </g>
          </g>
          <g>
            <path d="M117.62,67.19C105.07,79.45,78.24,91.86,78.24,91.86s11.91-25.88,24-38.15c6.82-6.94,18.23-14.85,24.06-9.59S124.58,60.38,117.62,67.19Z" fill="#69b3e4"/>
            <path d="M38.87,67.19C51.41,79.45,78.24,91.86,78.24,91.86S66.34,66,54.29,53.71c-6.81-6.94-18.23-14.85-24-9.59S31.91,60.38,38.87,67.19Z" fill="#69b3e4"/>
          </g>
          <ellipse cx="78.24" cy="83.64" rx="3.18" ry="23.04" fill="#69b3e4"/>
        </g>
        <path d="M74.67,102.77a14.93,14.93,0,0,1-.93-5.09c0-1.75-.17-3.5-.24-5.25a4.4,4.4,0,0,1,1.17-3.3c.82-.88,1.57-1.86,2.36-2.79a2.38,2.38,0,0,1,3.23.16c.72.86,1.43,1.75,2.21,2.53a5.06,5.06,0,0,1,1.27,4.11c-.07,4.86-.43,9.15-2.65,12.81-.15.24-.35.62-.53.63a11.82,11.82,0,0,1-3.9-.12c-.62-.2-1.06-1.54-1.47-2.44-.19-.41-.36-.83-.52-1.25" fill="#69b3e4"/>
        <ellipse cx="76.76" cy="108.62" rx="1.09" ry="1.3" transform="translate(-53.19 80.24) rotate(-42.43)" fill="#69b3e4"/>
        <ellipse cx="79.71" cy="108.61" rx="1.34" ry="1.06" transform="translate(-52.47 82.55) rotate(-42.57)" fill="#69b3e4"/>
        <path d="M79,64.54H77.43c-.19,0-.35-.28-.35-.62s.16-.62.35-.62H79c.19,0,.35.28.35.62S79.21,64.54,79,64.54Z" fill="#69b3e4"/>
        <path d="M79.33,66.82H77.12c-.26,0-.48-.38-.48-.85s.22-.85.48-.85h2.21c.27,0,.48.38.48.85S79.6,66.82,79.33,66.82Z" fill="#69b3e4"/>
        <path d="M79.65,72.6H76.81c-.34,0-.62-.53-.62-1.18s.28-1.18.62-1.18h2.84c.34,0,.61.53.61,1.18S80,72.6,79.65,72.6Z" fill="#69b3e4"/>
        <path d="M79.86,75.67H76.6c-.39,0-.71-.53-.71-1.19s.32-1.18.71-1.18h3.26c.38,0,.7.53.7,1.18S80.24,75.67,79.86,75.67Z" fill="#69b3e4"/>
        <path d="M79.92,79.15H76.53c-.41,0-.74-.61-.74-1.36s.33-1.35.74-1.35h3.39c.41,0,.74.6.74,1.35S80.33,79.15,79.92,79.15Z" fill="#69b3e4"/>
        <path d="M80.08,82.82H76.37c-.44,0-.8-.64-.8-1.44s.36-1.44.8-1.44h3.71c.44,0,.8.64.8,1.44S80.52,82.82,80.08,82.82Z" fill="#69b3e4"/>
        <path d="M80.15,86.71H76.3c-.46,0-.83-.69-.83-1.53s.37-1.54.83-1.54h3.85c.46,0,.83.69.83,1.54S80.61,86.71,80.15,86.71Z" fill="#69b3e4"/>
        <path d="M79.44,69.61h-2.5c-.3,0-.54-.49-.54-1.08s.24-1.08.54-1.08h2.5c.29,0,.54.48.54,1.08S79.73,69.61,79.44,69.61Z" fill="#69b3e4"/>
      </g>
    </g>
    <g>
      <g>
        <g>
          <g>
            <g>
              <circle cx="78.49" cy="106.7" r="2.75" fill="#69b3e4"/>
              <path d="M78.49,109.75a3.06,3.06,0,1,1,3.06-3A3.06,3.06,0,0,1,78.49,109.75Zm0-5.5a2.45,2.45,0,1,0,2.45,2.45A2.45,2.45,0,0,0,78.49,104.25Z" fill="#69b3e4"/>
            </g>
            <g>
              <path d="M79.4,111.71c-.57,3.84-.89,27.6-.89,27.6s-.53-24-1.06-27.79-2.86-7,1.06-7S80,107.62,79.4,111.71Z" fill="#69b3e4"/>
              <path d="M78.21,139.32c0-.24-.53-24-1.06-27.76a21,21,0,0,0-.67-3c-.44-1.6-.79-2.87-.18-3.67a2.6,2.6,0,0,1,2.21-.75,2.53,2.53,0,0,1,2.18.75c.61.8.23,2.09-.24,3.72a21.31,21.31,0,0,0-.75,3.12h0c-.56,3.77-.89,27.32-.89,27.56Zm.3-34.54c-.9,0-1.47.16-1.73.5-.43.57-.12,1.71.28,3.15a23.2,23.2,0,0,1,.69,3c.26,1.88.51,8.39.71,14.64.15-6.18.36-12.58.64-14.44h0a23.13,23.13,0,0,1,.77-3.2c.41-1.41.77-2.63.34-3.19C80,104.94,79.4,104.78,78.51,104.78Z" fill="#69b3e4"/>
            </g>
          </g>
          <g>
            <path d="M117.87,64.23C105.32,77,78.49,90,78.49,90s11.9-27,24-39.8c6.81-7.24,18.23-15.48,24.06-10S124.83,57.13,117.87,64.23Z" fill="#fff" stroke="#69b3e4" stroke-linecap="round" stroke-miterlimit="10"/>
            <path d="M39.11,64.23C51.66,77,78.49,90,78.49,90s-11.9-27-23.95-39.8c-6.81-7.24-18.23-15.48-24.06-10S32.15,57.13,39.11,64.23Z" fill="#fff" stroke="#69b3e4" stroke-linecap="round" stroke-miterlimit="10"/>
          </g>
          <ellipse cx="78.49" cy="81.39" rx="3.18" ry="24.04" fill="#69b3e4"/>
        </g>
        <path d="M74.92,101.34A16.12,16.12,0,0,1,74,96c0-1.83-.18-3.65-.24-5.48a4.69,4.69,0,0,1,1.17-3.44c.81-.92,1.57-1.94,2.36-2.91a2.31,2.31,0,0,1,3.23.16c.72.91,1.43,1.83,2.21,2.64A5.44,5.44,0,0,1,84,91.3c-.08,5.07-.43,9.55-2.65,13.36-.15.26-.35.65-.54.66a11.25,11.25,0,0,1-3.89-.13c-.62-.2-1.07-1.6-1.48-2.54-.18-.43-.36-.86-.51-1.31" fill="#69b3e4" stroke="#69b3e4" stroke-miterlimit="10"/>
        <polyline points="71.71 123.16 78.49 109.45 85.81 123.16" fill="none" stroke="#69b3e4" stroke-linecap="round" stroke-miterlimit="10" stroke-width="0.75"/>
        <ellipse cx="77" cy="107.45" rx="1.11" ry="1.34" transform="translate(-48.3 65.32) rotate(-35.79)" fill="#c5ddf4"/>
        <ellipse cx="79.96" cy="107.44" rx="1.37" ry="1.08" transform="translate(-53.34 94.47) rotate(-47.79)" fill="#c5ddf4"/>
        <path d="M79.27,61.47H77.68c-.19,0-.35-.29-.35-.65s.16-.65.35-.65h1.59c.19,0,.35.29.35.65S79.46,61.47,79.27,61.47Z" fill="#c5ddf4"/>
        <path d="M79.58,63.84H77.37c-.27,0-.48-.39-.48-.88s.21-.89.48-.89h2.21c.26,0,.48.4.48.89S79.84,63.84,79.58,63.84Z" fill="#c5ddf4"/>
        <path d="M79.89,69.88H77.05c-.34,0-.61-.55-.61-1.24s.27-1.23.61-1.23h2.84c.34,0,.62.55.62,1.23S80.23,69.88,79.89,69.88Z" fill="#c5ddf4"/>
        <path d="M80.1,73.07H76.84c-.39,0-.7-.55-.7-1.23s.31-1.23.7-1.23H80.1c.39,0,.71.55.71,1.23S80.49,73.07,80.1,73.07Z" fill="#c5ddf4"/>
        <path d="M80.17,76.71h-3.4c-.4,0-.73-.64-.73-1.42s.33-1.41.73-1.41h3.4c.41,0,.74.63.74,1.41S80.58,76.71,80.17,76.71Z" fill="#c5ddf4"/>
        <path d="M80.32,80.54h-3.7c-.44,0-.8-.68-.8-1.51s.36-1.5.8-1.5h3.7c.45,0,.81.67.81,1.5S80.77,80.54,80.32,80.54Z" fill="#c5ddf4"/>
        <path d="M80.39,84.59H76.55c-.46,0-.83-.71-.83-1.6s.37-1.6.83-1.6h3.84c.46,0,.84.72.84,1.6S80.85,84.59,80.39,84.59Z" fill="#c5ddf4"/>
        <path d="M79.68,66.75H77.19c-.3,0-.54-.5-.54-1.12s.24-1.13.54-1.13h2.49c.3,0,.54.51.54,1.13S80,66.75,79.68,66.75Z" fill="#c5ddf4"/>
      </g>
      <polyline points="57.47 133.16 67.67 97.72 78.47 102.91 88.54 97.72 100.11 133.15" fill="none" stroke="#69b3e4" stroke-linecap="round" stroke-miterlimit="10"/>
      <polyline points="46.89 116.22 64.81 93.52 78.4 99.5 91.54 93.44 109.98 116.21" fill="none" stroke="#69b3e4" stroke-linecap="round" stroke-miterlimit="10"/>
      <polyline points="49.1 100.1 65.44 88.05 79.03 94.02 92.81 88.05 108.46 100.1" fill="none" stroke="#69b3e4" stroke-linecap="round" stroke-miterlimit="10"/>
    </g>
  </g>
</svg>
