<svg xmlns="http://www.w3.org/2000/svg" viewBox="0 0 157.58 157.58">
  <title>Asset 3</title>
  <g style="isolation: isolate">
    <g>
      <g>
        <path d="M78.49,6.49v144.6a72.3,72.3,0,0,0,0-144.6Z" fill="#e5effb"/>
        <path d="M78.79,157.58a78.79,78.79,0,1,1,78.79-78.79A78.88,78.88,0,0,1,78.79,157.58Zm0-148.22a69.43,69.43,0,1,0,69.43,69.43A69.5,69.5,0,0,0,78.79,9.36Z" fill="#69b3e4"/>
      </g>
      <g>
        <g opacity="0.39" style="mix-blend-mode: multiply">
          <path d="M50.33,102a15.36,15.36,0,0,1-6-1.23l-2.33-1a15.53,15.53,0,0,1-8.22-20.32l9.89-23.3L48.22,58,38.33,81.35a10.59,10.59,0,0,0,5.58,13.81l2.33,1a10.59,10.59,0,0,0,13.82-5.59L70,67.1,74.58,69l-10,23.46A15.63,15.63,0,0,1,50.33,102Z" fill="#69b3e4"/>
          <g>
            <path d="M71.45,70.06l10-23.46a13.07,13.07,0,0,0-6.9-17.07l-2.33-1a13.06,13.06,0,0,0-17.07,6.9L46.36,56.08l-.6,1.41c-1.47,3.45,3.23,8.74,10.5,11.82s14.33,2.79,15.79-.66Z" fill="#69b3e4"/>
            <path d="M65.6,73.92A27,27,0,0,1,55.29,71.6c-8.8-3.74-13.88-10.22-11.82-15.08l9.36-22.05a15.52,15.52,0,0,1,20.32-8.21l2.33,1a15.51,15.51,0,0,1,8.21,20.32L73.73,71,73.54,71C72,72.91,69.13,73.92,65.6,73.92ZM67.11,30a10.55,10.55,0,0,0-9.71,6.42L48,58.46c-.59,1.4,2.45,5.71,9.18,8.57s11.9,2.06,12.54.67l9.36-22.07a10.55,10.55,0,0,0-5.58-13.82l-2.33-1A10.62,10.62,0,0,0,67.11,30Z" fill="#69b3e4"/>
          </g>
          <circle cx="106.51" cy="55.58" r="19.92" fill="#69b3e4"/>
          <g>
            <path d="M113.68,84.17a14.44,14.44,0,0,1,3.76,4.41l1.16,2.09a14.64,14.64,0,0,1-5.69,19.88L92,122.13,89.75,118l20.89-11.59a10,10,0,0,0,3.87-13.51l-1.16-2.09A10,10,0,0,0,99.83,87l-21,11.67-2.27-4.1,21-11.67a14.71,14.71,0,0,1,16.12,1.29Z" fill="#69b3e4"/>
            <g>
              <path d="M79.45,95.61l-21,11.66A12.31,12.31,0,0,0,53.64,124l1.15,2.09a12.32,12.32,0,0,0,16.7,4.78L90,120.58l1.27-.7c3.09-1.71,2.67-8.38-.94-14.89s-9-10.4-12.13-8.68Z" fill="#69b3e4"/>
              <path d="M86,96.14a25.3,25.3,0,0,1,6.32,7.72c4.38,7.88,4.39,15.65,0,18.07l-19.77,11a14.64,14.64,0,0,1-19.88-5.7l-1.16-2.08a14.64,14.64,0,0,1,5.69-19.88l21-11.67.1.17C80.71,93.18,83.42,94.09,86,96.14ZM59.4,127.93a10,10,0,0,0,11,.87l19.76-11c1.25-.69,1.5-5.66-1.85-11.7s-7.65-8.44-8.93-7.79l-19.78,11a10,10,0,0,0-3.88,13.52l1.16,2.08A10.14,10.14,0,0,0,59.4,127.93Z" fill="#69b3e4"/>
            </g>
          </g>
        </g>
        <path d="M79.28,93.59s10.2,9.52,11.7,21.52c0,0,17.59-8,20-10.76s5.21-6.71,2.72-11.42-3.19-8.52-8.29-9.88-3.93-1.06-8.45,0S79.28,93.59,79.28,93.59Z" fill="#fff"/>
        <path d="M64.46,71.91s-13.9-1.08-22.56-9.52c0,0-8.77,17.22-8.95,20.9s.12,8.5,5,10.63,7.81,4.67,12.64,2.55,3.74-1.62,6.6-5.27S64.46,71.91,64.46,71.91Z" fill="#fff"/>
        <g>
          <path d="M46.91,100.72a15.4,15.4,0,0,1-6-1.23l-2.33-1a15.51,15.51,0,0,1-8.21-20.32l9.88-23.3,4.57,1.94-9.89,23.3A10.57,10.57,0,0,0,40.5,93.93l2.33,1a10.56,10.56,0,0,0,13.81-5.58l10-23.47,4.57,1.94-10,23.47a15.58,15.58,0,0,1-14.3,9.44Z" fill="#69b3e4"/>
          <g>
            <path d="M68,68.84,78,45.37a13.06,13.06,0,0,0-6.9-17.07l-2.33-1a13,13,0,0,0-17.06,6.9L42.94,54.85l-.6,1.42c-1.46,3.44,3.24,8.74,10.5,11.82s14.33,2.78,15.8-.67Z" fill="#69b3e4"/>
            <path d="M62.19,72.69a27,27,0,0,1-10.32-2.32C43.07,66.64,38,60.16,40.06,55.3l9.35-22A15.53,15.53,0,0,1,69.73,25l2.33,1a15.52,15.52,0,0,1,8.22,20.32l-10,23.47-.2-.08C68.57,71.68,65.71,72.69,62.19,72.69ZM63.7,28.76A10.55,10.55,0,0,0,54,35.18L44.62,57.24c-.59,1.39,2.45,5.7,9.19,8.56s11.89,2.06,12.53.68L75.71,44.4a10.55,10.55,0,0,0-5.59-13.81l-2.33-1A10.4,10.4,0,0,0,63.7,28.76Z" fill="#69b3e4"/>
          </g>
          <g>
            <path d="M49.76,58.56a2,2,0,0,1,0-.51A3.63,3.63,0,0,1,50,57.5a1.23,1.23,0,0,1,1.27-.89l14.56.06-.69,1.85H60.93L58.9,64l3.16,2.68-.66,1.79Zm9.56-.11L52,58.33,57.62,63Z" fill="#fff"/>
            <path d="M53,49.59a24.37,24.37,0,0,1,1-3.25,7.15,7.15,0,0,1,2.4-3.63,3.63,3.63,0,0,1,3.41-.15,4.56,4.56,0,0,1,1.72,1.06,3.9,3.9,0,0,1,1,1.56A4.18,4.18,0,0,1,62.66,47l7.26-1.53a2.17,2.17,0,0,1-.17,1,1.76,1.76,0,0,1-1.32,1.15L62.3,49l-.67,1.81,5.56,2.06-.65,1.77Zm7.67-.8c.83-2.24.35-3.68-1.44-4.35a2.42,2.42,0,0,0-2.18.05,4.65,4.65,0,0,0-1.53,2.36,10,10,0,0,0-.46,1.5l5.07,1.88Z" fill="#fff"/>
            <path d="M59.61,36.34,58,40.65a2.83,2.83,0,0,1-.59-.15.93.93,0,0,1-.58-.61,1.55,1.55,0,0,1,.06-1l3.46-9.32a2.67,2.67,0,0,1,.48.13,1.1,1.1,0,0,1,.66.62,1.45,1.45,0,0,1,0,1l-1.19,3.2,12,4.47-.66,1.79Z" fill="#fff"/>
          </g>
          <circle cx="103.09" cy="54.35" r="19.92" fill="#69b3e4"/>
          <path d="M98.67,48.85a5.2,5.2,0,0,0-1.56-1.37A4.57,4.57,0,0,0,95.22,47a4.13,4.13,0,0,0-3.64,1.38A7.6,7.6,0,0,0,90,52.87,7.5,7.5,0,0,0,91,57.61a4.36,4.36,0,0,0,3.54,1.91,4.46,4.46,0,0,0,2-.32,4.94,4.94,0,0,0,1.74-1.15,2.58,2.58,0,0,1,.53.68,1.21,1.21,0,0,1,.21.63,1,1,0,0,1-.37.66,5,5,0,0,1-1.92,1,7.46,7.46,0,0,1-2.52.23,6.2,6.2,0,0,1-4.89-2.46,8.9,8.9,0,0,1-1.32-6,9,9,0,0,1,2.21-5.81,6.22,6.22,0,0,1,5.19-1.76,7.2,7.2,0,0,1,2.22.52,5.61,5.61,0,0,1,1.64,1,1.34,1.34,0,0,1,.56,1,2.22,2.22,0,0,1-.69,1.18Z" fill="#fff"/>
          <path d="M106.05,59.35a7.8,7.8,0,0,1-.93-2.59,12.72,12.72,0,0,1-.15-3.18,10,10,0,0,1,1.14-4.18,6.11,6.11,0,0,1,2.54-2.59,6.67,6.67,0,0,1,3.67-.69,6.36,6.36,0,0,1,3.47,1.21,6,6,0,0,1,2,2.91,10.89,10.89,0,0,1,.46,4.28,9.28,9.28,0,0,1-2.18,5.82,6.06,6.06,0,0,1-5.14,1.82A5.85,5.85,0,0,1,106.05,59.35Zm3,.38a4.13,4.13,0,0,0,2.12.66,3.87,3.87,0,0,0,3.5-1.41,8.16,8.16,0,0,0,1.5-4.59,7.72,7.72,0,0,0-.81-4.62A3.86,3.86,0,0,0,112.14,48a4.05,4.05,0,0,0-3.55,1.31,7.44,7.44,0,0,0-1.5,4.46,9.57,9.57,0,0,0,.33,3.67A4.41,4.41,0,0,0,109,59.73Zm2.39,3.37a1,1,0,0,1,.57-.17,1.24,1.24,0,0,1,.53.16,4.36,4.36,0,0,1,.85.57,5.29,5.29,0,0,0,1.47.84,6.39,6.39,0,0,0,1.59.35,2,2,0,0,1-.48,1.27,1.25,1.25,0,0,1-1,.42,3.87,3.87,0,0,1-2.09-1,7.64,7.64,0,0,1-1.81-2A1.17,1.17,0,0,1,111.43,63.1Z" fill="#fff"/>
          <g>
            <line x1="104.95" y1="28.23" x2="99.66" y2="81.62" fill="#69b3e4"/>
            <rect x="75.48" y="54.43" width="53.66" height="1" transform="translate(37.57 151.32) rotate(-84.35)" fill="#e5effb"/>
          </g>
          <g>
            <path d="M110.27,82.94A14.7,14.7,0,0,1,114,87.35l1.16,2.09a14.64,14.64,0,0,1-5.7,19.88L88.61,120.91l-2.28-4.1,20.89-11.58a10,10,0,0,0,3.87-13.52l-1.16-2.08a10,10,0,0,0-13.51-3.88l-21,11.67-2.27-4.09,21-11.67a14.49,14.49,0,0,1,11.11-1.26A14.82,14.82,0,0,1,110.27,82.94Z" fill="#69b3e4"/>
            <g>
              <path d="M76,94.38,55,106.05a12.32,12.32,0,0,0-4.78,16.7l1.16,2.08a12.33,12.33,0,0,0,16.7,4.79l18.5-10.26,1.26-.71c3.09-1.71,2.67-8.38-.94-14.88s-9-10.4-12.13-8.69Z" fill="#69b3e4"/>
              <path d="M82.63,94.91A25.59,25.59,0,0,1,89,102.63c4.37,7.89,4.38,15.65,0,18.07l-19.77,11A14.64,14.64,0,0,1,49.33,126l-1.16-2.09A14.64,14.64,0,0,1,53.87,104l21-11.67.1.18C77.29,92,80,92.86,82.63,94.91ZM56,126.7a10,10,0,0,0,10.95.87l19.77-11c1.25-.7,1.49-5.67-1.86-11.71s-7.64-8.44-8.92-7.78l-19.79,11a10,10,0,0,0-3.87,13.52l1.16,2.09A9.7,9.7,0,0,0,56,126.7Z" fill="#69b3e4"/>
            </g>
          </g>
          <g>
            <path d="M50.06,114.64a34.88,34.88,0,0,1,2.88-2,7.41,7.41,0,0,1,4.31-1.37,3.73,3.73,0,0,1,2.91,2,4.53,4.53,0,0,1,.64,3.93,6.64,6.64,0,0,1-3.08,3.32l-1.34.81,2.93,4.85-1.64,1Zm6.22,4.92a8.74,8.74,0,0,0,2.13-1.65,2.53,2.53,0,0,0,.7-1.6,3.44,3.44,0,0,0-.59-1.87,2.46,2.46,0,0,0-1.87-1.32,4.6,4.6,0,0,0-2.74.84,13,13,0,0,0-1.45,1L55.53,120Z" fill="#fff"/>
            <path d="M60.21,108.5a34.88,34.88,0,0,1,2.88-2,7.46,7.46,0,0,1,4.31-1.37,3.75,3.75,0,0,1,2.91,2,4.56,4.56,0,0,1,.64,3.93,6.67,6.67,0,0,1-3.08,3.32l-1.34.81,2.93,4.84-1.64,1Zm6.22,4.93a9.49,9.49,0,0,0,2.13-1.65,2.66,2.66,0,0,0,.7-1.61,3.44,3.44,0,0,0-.59-1.86A2.47,2.47,0,0,0,66.8,107a4.59,4.59,0,0,0-2.75.85,12.27,12.27,0,0,0-1.44,1l3.07,5.07Z" fill="#fff"/>
            <path d="M77.83,112.69a7.46,7.46,0,0,1-2.15-1.51,11.83,11.83,0,0,1-1.88-2.39,9.68,9.68,0,0,1-1.42-3.88,5.87,5.87,0,0,1,.56-3.43,6.34,6.34,0,0,1,2.47-2.55,6.1,6.1,0,0,1,3.38-1A5.8,5.8,0,0,1,82,99.1a10.38,10.38,0,0,1,2.71,3.09,8.82,8.82,0,0,1,1.52,5.74,5.78,5.78,0,0,1-3,4.25A5.58,5.58,0,0,1,77.83,112.69Zm2.53-1.35a4.1,4.1,0,0,0,2-.66,3.72,3.72,0,0,0,1.94-3,7.71,7.71,0,0,0-1.36-4.4,7.21,7.21,0,0,0-3.18-3.15,3.69,3.69,0,0,0-3.5.36,3.86,3.86,0,0,0-2,3,7.11,7.11,0,0,0,1.29,4.31,9.22,9.22,0,0,0,2.28,2.67A4.17,4.17,0,0,0,80.36,111.34Zm3.73,1.3a.91.91,0,0,1,.35-.44,1.24,1.24,0,0,1,.5-.18,5.54,5.54,0,0,1,1,0,5.13,5.13,0,0,0,1.61-.15,6,6,0,0,0,1.43-.61,1.92,1.92,0,0,1,.32,1.26,1.18,1.18,0,0,1-.58.91,3.83,3.83,0,0,1-2.19.36,7.65,7.65,0,0,1-2.53-.58A1.27,1.27,0,0,1,84.09,112.64Z" fill="#fff"/>
          </g>
        </g>
      </g>
    </g>
  </g>
</svg>
