<svg xmlns="http://www.w3.org/2000/svg" viewBox="0 0 157.58 157.58">
  <title>Asset 7</title>
  <g>
    <g>
      <path d="M78.49,6.49v144.6a72.3,72.3,0,0,0,0-144.6Z" fill="#e5effb"/>
      <path d="M78.79,157.58a78.79,78.79,0,1,1,78.79-78.79A78.88,78.88,0,0,1,78.79,157.58Zm0-148.22a69.43,69.43,0,1,0,69.43,69.43A69.5,69.5,0,0,0,78.79,9.36Z" fill="#69b3e4"/>
      <circle cx="97.8" cy="44.95" r="7.78" fill="#c5ddf4"/>
      <circle cx="63.42" cy="44.95" r="7.78" fill="#c5ddf4"/>
      <path d="M25.35,72.06l25.17-28.5a12.68,12.68,0,0,1,11-3.33A13.5,13.5,0,0,1,72.35,50.56v8h7.86V80.73H22.35Z" fill="#97c6ec"/>
      <path d="M80.69,80.61h57.87l-3-8.67-25.17-28.5a12.68,12.68,0,0,0-11-3.33A13.47,13.47,0,0,0,88.56,50.44v8H80.69l-4.17.12V80.73Z" fill="#97c6ec"/>
      <path d="M64.59,62.4H96.8s-7.11,7.8-6,17.18,0,3.89,0,3.89H69.48S73.36,70.43,64.59,62.4Z" fill="#7dbbe7"/>
      <circle cx="46.58" cy="86.7" r="26.75" fill="#69b3e4"/>
      <circle cx="114.64" cy="87.01" r="26.75" fill="#69b3e4"/>
      <circle cx="45.75" cy="87.01" r="18.84" fill="#c5ddf4"/>
      <circle cx="114.64" cy="87.01" r="18.84" fill="#c5ddf4"/>
      <circle cx="49.68" cy="82.51" r="6.44" fill="#fff"/>
      <circle cx="118.58" cy="82.51" r="6.44" fill="#fff"/>
    </g>
    <circle cx="112.14" cy="91.21" r="2.27" fill="#fff"/>
    <circle cx="42.2" cy="91.21" r="2.27" fill="#fff"/>
  </g>
</svg>
