<svg xmlns="http://www.w3.org/2000/svg" viewBox="0 0 62.32 62.32">
  <title>Asset 27</title>
  <g>
    <circle cx="31.16" cy="31.16" r="31.16" fill="#69b3e4"/>
    <g>
      <path d="M37.36,5.18A9,9,0,0,1,40.55,7l1.17,1a9.67,9.67,0,0,1,1,13.34l-9.94,12-2-1.76,9.94-12A6.9,6.9,0,0,0,40,10.09l-1.16-1a6.42,6.42,0,0,0-9.25.75l-10,12.07-2-1.76,10-12.07A9,9,0,0,1,37.36,5.18Z" fill="#fff"/>
      <g>
        <path d="M19.05,20.47,9.3,32.23a8.19,8.19,0,0,0,1,11.26l1.17,1a7.64,7.64,0,0,0,11-.74L31,33.44l.58-.71c1.43-1.72-.35-5.71-4-8.9s-7.73-4.38-9.16-2.65Z" fill="#fff"/>
        <path d="M22.94,19.47a16.29,16.29,0,0,1,5.53,3.33,16.76,16.76,0,0,1,4.23,5.46c1,2.19.94,4.09-.11,5.35l-9.15,11a8.91,8.91,0,0,1-12.82.89l-1.16-1A9.56,9.56,0,0,1,8.3,31.35l9.16-11h0l.59-.71.1.09C19.32,18.89,21,18.85,22.94,19.47ZM14.67,44.83a6.23,6.23,0,0,0,6.77-1.93l9.15-11c.32-.38.21-1.35-.28-2.45a14.28,14.28,0,0,0-3.55-4.54c-3.33-2.93-6.59-3.63-7.29-2.81L10.3,33.1a6.82,6.82,0,0,0,.86,9.37l1.17,1A6.74,6.74,0,0,0,14.67,44.83Z" fill="#fff"/>
      </g>
    </g>
    <circle cx="43.11" cy="42.42" r="9.57" fill="#fff"/>
    <line x1="44.38" y1="29.86" x2="41.84" y2="55.52" fill="none" stroke="#69b3e4" stroke-miterlimit="10" stroke-width="2" opacity="0.75"/>
  </g>
</svg>
