<svg xmlns="http://www.w3.org/2000/svg" viewBox="0 0 62.32 62.32">
  <title>Asset 25</title>
  <g>
    <circle cx="31.16" cy="31.16" r="31.16" fill="#69b3e4"/>
    <path d="M43.29,8.23C43.29,21,38,31.31,31.38,31.31S19.46,21,19.46,8.23" fill="none" stroke="#fff" stroke-linecap="round" stroke-miterlimit="10" stroke-width="3"/>
    <path d="M19.46,54.4c0-12.75,5.33-23.09,11.92-23.09S43.29,41.65,43.29,54.4" fill="none" stroke="#fff" stroke-linecap="round" stroke-miterlimit="10" stroke-width="3"/>
    <line x1="24.45" y1="14.39" x2="38.29" y2="14.39" fill="none" stroke="#fff" stroke-linecap="round" stroke-miterlimit="10" stroke-width="3"/>
    <g opacity="0.45">
      <path d="M34.77,26.4H28.05a1.5,1.5,0,0,1,0-3h6.72a1.5,1.5,0,0,1,0,3Z" fill="none" stroke="#fff" stroke-miterlimit="10"/>
    </g>
    <g opacity="0.45">
      <path d="M38.88,10.67h-15a1.5,1.5,0,0,1,0-3h15a1.5,1.5,0,0,1,0,3Z" fill="none" stroke="#fff" stroke-miterlimit="10"/>
    </g>
    <g opacity="0.45">
      <path d="M37,21.1H26.18a1.5,1.5,0,0,1,0-3H37a1.5,1.5,0,0,1,0,3Z" fill="none" stroke="#fff" stroke-miterlimit="10"/>
    </g>
    <path d="M38.36,49.91H24.53a1.5,1.5,0,0,1,0-3H38.36a1.5,1.5,0,0,1,0,3Z" fill="#fff"/>
    <g opacity="0.45">
      <path d="M34.77,39.4H28.05a1.5,1.5,0,0,1,0-3h6.72a1.5,1.5,0,0,1,0,3Z" fill="none" stroke="#fff" stroke-miterlimit="10"/>
    </g>
    <g opacity="0.45">
      <path d="M38.88,55.13h-15a1.5,1.5,0,0,1,0-3h15a1.5,1.5,0,0,1,0,3Z" fill="none" stroke="#fff" stroke-miterlimit="10"/>
    </g>
    <line x1="36.64" y1="43.19" x2="25.85" y2="43.19" fill="none" stroke="#fff" stroke-linecap="round" stroke-miterlimit="10" stroke-width="3"/>
  </g>
</svg>
