<svg xmlns="http://www.w3.org/2000/svg" viewBox="0 0 62.32 62.32">
  <title>Asset 10</title>
  <g>
    <circle cx="31.16" cy="31.16" r="31.16" fill="#69b3e4"/>
    <g>
      <path d="M17.64,38.79s-.12-16.68,16.08-22.2c0,0,1.8-.48.84-2.64S28.32,9.51,22.2,11.43s-11.65,8.76-13,14.88S10,39,11.75,40.47,18.24,42.63,17.64,38.79Z" fill="#fff"/>
      <path d="M47.86,41.08a9.23,9.23,0,0,1-4.67-1.3,10.52,10.52,0,0,1-4.7-6c-1.64-5.34,1.06-10.92,6-12.44a9,9,0,0,1,7.25.91,10.48,10.48,0,0,1,4.7,6c1.64,5.34-1.06,10.92-6,12.44A8.82,8.82,0,0,1,47.86,41.08Zm-.78-18.23a7,7,0,0,0-2,.3c-3.94,1.21-6.06,5.71-4.73,10a8.53,8.53,0,0,0,3.83,4.93,7.1,7.1,0,0,0,5.72.73c3.94-1.21,6.06-5.71,4.73-10a8.53,8.53,0,0,0-3.83-4.93A7.26,7.26,0,0,0,47.08,22.85Z" fill="#fff"/>
      <ellipse cx="29.68" cy="42.96" rx="8.01" ry="7.16" transform="translate(-22 50.44) rotate(-63.6)" fill="#fff"/>
      <circle cx="30.79" cy="26.72" r="4.05" fill="#fff"/>
      <path d="M53.28,38.12s4.54-5,2.48-10.28c-1.88-4.82-4.3-6-9.85-5.86-4.18.1-8.3,6.83-5.91,6.25,1.41-.34,11.75-6,11.7,8.22C51.7,36.45,50.16,39.77,53.28,38.12Z" fill="#fff"/>
    </g>
  </g>
</svg>
