<?xml version="1.0" standalone="no"?>
<!DOCTYPE svg PUBLIC "-//W3C//DTD SVG 20010904//EN"
 "http://www.w3.org/TR/2001/REC-SVG-20010904/DTD/svg10.dtd">
<svg version="1.0" xmlns="http://www.w3.org/2000/svg"
 width="672.000000pt" height="672.000000pt" viewBox="0 0 672.000000 672.000000"
 preserveAspectRatio="xMidYMid meet">
<metadata>
Created by potrace 1.11, written by Peter Selinger 2001-2013
</metadata>
<g transform="translate(0.000000,672.000000) scale(0.100000,-0.100000)"
fill="#000000" stroke="none">
<path d="M2 3355 l1 -2935 864 0 864 0 -4 1168 c-3 642 -7 1192 -10 1222 -6
52 -10 120 -23 345 -9 176 -19 326 -28 430 -4 39 -9 97 -11 130 -3 33 -7 80
-9 105 -3 25 -7 74 -10 110 -4 36 -8 79 -11 95 -23 158 -12 210 19 95 8 -30
26 -93 40 -140 14 -47 25 -86 26 -87 0 -2 0 -4 1 -5 0 -2 2 -10 4 -18 2 -8 13
-49 25 -90 30 -105 78 -274 83 -295 1 -5 6 -16 10 -22 5 -7 6 -13 3 -13 -3 0
1 -18 9 -40 8 -22 14 -42 15 -45 0 -3 0 -6 1 -7 0 -2 2 -10 4 -19 1 -9 12 -48
24 -85 11 -38 48 -166 81 -284 33 -118 69 -245 80 -283 24 -82 52 -183 74
-259 9 -32 23 -82 31 -110 30 -104 126 -443 131 -461 2 -9 6 -25 8 -35 3 -9
23 -80 45 -157 44 -151 130 -450 136 -475 2 -8 29 -105 60 -215 32 -110 58
-205 59 -212 1 -7 5 -16 9 -19 4 -4 7 -14 7 -23 0 -8 11 -51 24 -95 13 -45 32
-109 42 -143 l18 -63 671 0 c648 0 671 1 672 19 1 10 14 58 28 106 15 49 28
93 29 99 1 6 5 17 9 24 5 6 6 12 2 12 -3 0 1 16 9 35 8 19 13 35 11 35 -3 0 0
12 6 27 6 16 12 35 14 44 4 18 33 124 70 249 14 47 27 94 30 105 8 36 43 158
63 223 11 34 18 62 15 62 -3 0 0 7 7 15 7 8 10 15 7 15 -3 0 2 21 10 48 8 26
30 103 49 172 19 69 39 139 44 155 9 27 20 68 65 230 8 28 23 82 34 120 11 39
20 72 20 75 0 3 5 19 11 35 7 17 14 38 16 47 2 10 6 26 8 35 2 10 19 68 36
128 31 107 60 210 65 230 1 6 5 17 8 25 4 8 11 33 16 55 5 22 32 121 61 220
28 99 54 187 56 195 2 8 10 40 19 70 9 30 18 62 20 70 2 8 11 40 20 70 9 30
18 62 20 70 2 8 4 15 5 15 1 0 3 9 5 19 2 10 11 42 20 70 10 28 19 59 21 69 2
9 6 25 9 35 2 9 9 33 14 52 12 46 66 236 92 324 14 47 24 65 29 56 5 -8 7 -17
5 -20 -1 -3 -6 -48 -10 -100 -4 -52 -8 -113 -10 -135 -14 -170 -17 -216 -21
-255 -3 -25 -7 -69 -9 -97 -3 -29 -7 -79 -11 -110 -5 -60 -9 -118 -19 -263 -3
-47 -7 -114 -10 -150 -3 -36 -8 -108 -10 -160 -3 -52 -8 -138 -11 -190 -3 -52
-7 -587 -9 -1187 l-3 -1093 864 0 864 0 0 2935 0 2935 -1165 0 c-641 0 -1164
-3 -1163 -7 1 -5 -4 -28 -11 -53 -7 -25 -14 -49 -16 -55 -1 -5 -4 -17 -7 -25
-6 -16 -27 -92 -33 -119 -2 -9 -23 -79 -45 -156 -23 -77 -45 -156 -50 -175 -4
-19 -20 -75 -35 -125 -14 -49 -28 -97 -30 -106 -2 -9 -13 -49 -26 -90 -12 -41
-23 -78 -23 -84 -1 -5 -9 -35 -18 -65 -9 -30 -19 -66 -22 -80 -2 -14 -11 -45
-19 -70 -17 -51 -76 -260 -82 -289 -2 -11 -9 -29 -15 -40 -6 -12 -8 -21 -5
-21 3 0 -1 -16 -9 -35 -9 -20 -15 -38 -16 -40 0 -3 0 -6 -1 -7 0 -2 -3 -14 -5
-28 -4 -22 -22 -87 -70 -248 -8 -29 -17 -61 -19 -70 -2 -9 -11 -39 -19 -67
-45 -156 -64 -225 -59 -225 3 0 0 -7 -7 -15 -7 -8 -10 -15 -7 -15 3 0 -1 -16
-9 -35 -8 -19 -12 -35 -9 -35 3 0 1 -9 -5 -21 -6 -11 -13 -29 -15 -40 -6 -29
-65 -238 -82 -289 -8 -25 -17 -56 -19 -70 -3 -14 -12 -50 -21 -80 -9 -30 -18
-59 -19 -65 -1 -5 -12 -43 -24 -84 -12 -41 -23 -81 -25 -90 -4 -20 -111 -394
-135 -476 -10 -33 -20 -53 -23 -45 -6 17 -39 130 -43 145 -3 16 -31 115 -49
175 -9 30 -20 71 -25 90 -5 19 -16 60 -25 90 -23 78 -64 221 -81 285 -3 11 -6
25 -8 30 -2 6 -6 24 -11 40 -4 17 -10 35 -14 40 -3 6 -6 17 -6 25 -1 8 -6 31
-13 51 -7 20 -14 45 -17 55 -2 10 -13 51 -25 89 -12 39 -23 77 -25 85 -2 8
-15 58 -30 110 -15 52 -33 120 -41 150 -8 30 -19 63 -24 72 -6 10 -10 26 -10
37 0 10 -7 38 -15 61 -8 24 -17 52 -19 64 -3 12 -25 93 -51 181 -25 88 -48
168 -50 178 -3 9 -7 25 -10 35 -16 61 -117 420 -122 432 -3 8 -7 20 -9 25 -1
6 -9 35 -17 65 -9 30 -25 89 -36 132 -12 42 -25 88 -31 102 -5 14 -7 26 -4 26
4 0 2 6 -4 13 -6 7 -13 26 -16 42 -2 17 -5 30 -6 30 -1 0 -3 7 -5 15 -1 8 -17
65 -35 125 -18 61 -33 115 -34 120 -1 6 -10 37 -20 70 -10 33 -20 67 -21 75
-2 8 -21 75 -41 148 l-37 132 -1162 0 -1163 0 0 -2935z"/>
</g>
</svg>
