<svg xmlns="http://www.w3.org/2000/svg" viewBox="0 0 157.58 157.58">
  <title>Asset 6</title>
  <g>
    <g>
      <path d="M78.49,6.49v144.6a72.3,72.3,0,0,0,0-144.6Z" fill="#e5effb"/>
      <path d="M78.79,157.58a78.79,78.79,0,1,1,78.79-78.79A78.88,78.88,0,0,1,78.79,157.58Zm0-148.22a69.43,69.43,0,1,0,69.43,69.43A69.5,69.5,0,0,0,78.79,9.36Z" fill="#69b3e4"/>
    </g>
    <g>
      <g>
        <path d="M22.68,104.84a2.39,2.39,0,0,1-1.57-.58,2.41,2.41,0,0,1-.26-3.42c3.21-3.75,14.58-9.51,36.82-7.29C82,96,87.11,91.43,90.18,88.71l.64-.56C95.72,84,97,72.78,94.31,56.69,92.21,44,92.84,27.5,101.52,23.1a2.42,2.42,0,1,1,2.19,4.32c-5,2.53-6.92,14.51-4.62,28.49,3,18.33,1.3,30.42-5.12,35.92l-.58.51c-3.66,3.24-9.8,8.67-36.21,6-24.94-2.49-32.59,5.54-32.66,5.62A2.42,2.42,0,0,1,22.68,104.84Z" fill="#c5ddf4"/>
        <path d="M52.83,128.73a2.39,2.39,0,0,1-1.71-.72L25.18,101.89a2.42,2.42,0,0,1,3.44-3.41L54.55,124.6a2.43,2.43,0,0,1-1.72,4.13Z" fill="#c5ddf4"/>
        <path d="M56.61,119.56a2.41,2.41,0,0,1-1.72-.71L35,98.81a2.42,2.42,0,0,1,3.43-3.41l19.9,20a2.42,2.42,0,0,1-1.72,4.12Z" fill="#c5ddf4"/>
        <path d="M78,97.19a2.41,2.41,0,0,1-1.72-.71l-19.9-20A2.42,2.42,0,0,1,59.86,73l19.9,20A2.42,2.42,0,0,1,78,97.19Z" fill="#c5ddf4"/>
        <path d="M90.11,93.68A2.41,2.41,0,0,1,88.39,93L61.27,65.54a2.42,2.42,0,0,1,3.44-3.4L91.83,89.55a2.43,2.43,0,0,1,0,3.43A2.4,2.4,0,0,1,90.11,93.68Z" fill="#c5ddf4"/>
        <path d="M95.62,83.21a2.41,2.41,0,0,1-1.69-.69L72.46,61.39a2.42,2.42,0,0,1,3.39-3.45L97.32,79.07a2.42,2.42,0,0,1-1.7,4.14Z" fill="#c5ddf4"/>
        <path d="M117,60.67a2.41,2.41,0,0,1-1.72-.72l-19.9-20a2.43,2.43,0,0,1,3.44-3.42l19.9,20A2.43,2.43,0,0,1,117,60.67Z" fill="#c5ddf4"/>
        <path d="M127,56.61a2.42,2.42,0,0,1-1.72-.72L98.6,29A2.42,2.42,0,1,1,102,25.61l26.64,26.87A2.42,2.42,0,0,1,127,56.61Z" fill="#c5ddf4"/>
        <path d="M51,132.11a2.42,2.42,0,0,1-1.09-4.58c5-2.51,7-14.48,4.73-28.47-3-18.35-1.19-30.43,5.25-35.91l.58-.5c3.67-3.23,9.82-8.64,36.23-5.9,24.94,2.58,32.63-5.45,32.71-5.53A2.42,2.42,0,0,1,133,54.41c-3.23,3.74-14.63,9.45-36.85,7.15-24.3-2.52-29.45,2-32.54,4.73l-.63.55C58.09,71,56.81,82.19,59.4,98.29c2.05,12.75,1.36,29.19-7.34,33.56A2.32,2.32,0,0,1,51,132.11Z" fill="#c5ddf4"/>
      </g>
      <path d="M22.39,101.6a2.43,2.43,0,0,1-1.84-4c3.22-3.75,14.59-9.51,36.82-7.29,24.3,2.43,29.44-2.12,32.52-4.84l.63-.56c4.9-4.2,6.14-15.37,3.49-31.46-2.1-12.75-1.47-29.19,7.22-33.59a2.42,2.42,0,0,1,2.19,4.32c-5,2.52-6.93,14.5-4.63,28.48,3,18.34,1.3,30.43-5.12,35.93l-.57.5c-3.67,3.25-9.8,8.68-36.21,6-24.95-2.5-32.6,5.54-32.67,5.62A2.39,2.39,0,0,1,22.39,101.6Z" fill="#69b3e4"/>
      <path d="M52.54,125.48a2.42,2.42,0,0,1-1.72-.71L24.88,98.65a2.42,2.42,0,1,1,3.44-3.41l25.94,26.11a2.43,2.43,0,0,1,0,3.43A2.4,2.4,0,0,1,52.54,125.48Z" fill="#69b3e4"/>
      <path d="M56.31,116.32a2.39,2.39,0,0,1-1.71-.72l-19.9-20a2.43,2.43,0,0,1,3.44-3.42l19.89,20a2.42,2.42,0,0,1-1.72,4.13Z" fill="#69b3e4"/>
      <path d="M77.74,94A2.42,2.42,0,0,1,76,93.24l-19.9-20a2.42,2.42,0,1,1,3.43-3.41l19.9,20A2.42,2.42,0,0,1,77.74,94Z" fill="#69b3e4"/>
      <path d="M89.81,90.43a2.41,2.41,0,0,1-1.72-.72L61,62.3a2.42,2.42,0,1,1,3.44-3.41L91.53,86.31a2.41,2.41,0,0,1,0,3.42A2.38,2.38,0,0,1,89.81,90.43Z" fill="#69b3e4"/>
      <path d="M95.33,80a2.38,2.38,0,0,1-1.7-.7L72.16,58.15a2.42,2.42,0,1,1,3.4-3.45L97,75.82A2.43,2.43,0,0,1,95.33,80Z" fill="#69b3e4"/>
      <path d="M116.69,57.42a2.46,2.46,0,0,1-1.72-.71l-19.89-20a2.42,2.42,0,0,1,3.43-3.41l19.9,20a2.42,2.42,0,0,1-1.72,4.12Z" fill="#69b3e4"/>
      <path d="M126.67,53.36a2.38,2.38,0,0,1-1.72-.71L98.3,25.77a2.42,2.42,0,0,1,3.44-3.41l26.65,26.88a2.42,2.42,0,0,1-1.72,4.12Z" fill="#69b3e4"/>
      <g>
        <path d="M50.68,128.87a2.43,2.43,0,0,1-1.09-4.59c5-2.51,7-14.48,4.73-28.47-3-18.35-1.19-30.43,5.25-35.9l.58-.5c3.68-3.24,9.83-8.64,36.23-5.91,25,2.59,32.63-5.45,32.71-5.53a2.45,2.45,0,0,1,3.41-.18,2.41,2.41,0,0,1,.23,3.37c-3.23,3.74-14.63,9.46-36.85,7.16-24.29-2.52-29.45,2-32.53,4.72l-.64.56C57.79,67.78,56.51,79,59.1,95c2.06,12.76,1.37,29.2-7.33,33.57A2.49,2.49,0,0,1,50.68,128.87Z" fill="#69b3e4"/>
        <path d="M50.68,129.37a2.91,2.91,0,0,1-2.61-1.61,2.94,2.94,0,0,1,1.3-3.93c4.72-2.37,6.64-14.38,4.46-27.94-3-18.53-1.16-30.77,5.42-36.36l.57-.5c3.74-3.29,10-8.78,36.61-6,24.5,2.55,32.22-5.29,32.29-5.37a3,3,0,0,1,4.11-.22,2.9,2.9,0,0,1,.28,4.08c-3.3,3.81-14.86,9.65-37.28,7.33-24.08-2.5-29.13,1.94-32.15,4.6L63,64C58.25,68,57,79.05,59.6,95c2.08,12.91,1.33,29.59-7.61,34.09A3,3,0,0,1,50.68,129.37ZM83.33,53.25c-15.42,0-19.93,4-22.85,6.53l-.58.51c-6.3,5.35-8,17.28-5.08,35.45,2.28,14.19.18,26.39-5,29a1.88,1.88,0,0,0-1,1.11,1.92,1.92,0,0,0,.1,1.47,2,2,0,0,0,2.58.85c8.46-4.25,9.09-20.45,7.07-33-2.62-16.27-1.28-27.6,3.77-31.9l.6-.52c3.18-2.8,8.44-7.42,33-4.88,22,2.28,33.25-3.32,36.42-7a1.89,1.89,0,0,0-.19-2.68,1.93,1.93,0,0,0-2.7.15c-.08.08-7.88,8.31-33.13,5.69A127.64,127.64,0,0,0,83.33,53.25Z" fill="#e5effb"/>
      </g>
    </g>
  </g>
</svg>
