<svg xmlns="http://www.w3.org/2000/svg" xmlns:xlink="http://www.w3.org/1999/xlink" viewBox="0 0 157.58 157.58">
  <defs>
    <clipPath id="a">
      <circle cx="78.79" cy="78.79" r="67.53" fill="none"/>
    </clipPath>
  </defs>
  <title>Asset 1</title>
  <g>
    <circle cx="78.79" cy="78.79" r="78.79" fill="#69b3e4"/>
    <g>
      <g>
        <path d="M78.79,11.26V146.32a67.53,67.53,0,0,0,0-135.06Z" fill="#e5effb"/>
        <path d="M11.26,78.79a67.53,67.53,0,0,0,67.53,67.53V11.26A67.52,67.52,0,0,0,11.26,78.79Z" fill="#fff"/>
      </g>
      <g clip-path="url(#a)">
        <g>
          <polygon points="60.4 98.17 57.8 95.57 55.2 92.97 52.6 90.37 50.01 90.37 47.41 87.78 44.81 85.17 42.22 85.17 39.62 85.17 37.02 85.17 34.42 87.78 34.42 90.37 34.42 92.97 31.83 95.57 31.83 98.17 31.83 100.76 34.42 103.36 34.42 105.95 37.02 108.55 39.62 111.15 39.62 121.54 39.62 124.14 39.62 129.33 42.22 131.93 42.22 134.53 44.81 131.93 44.81 129.33 47.41 126.74 47.41 124.14 50.01 121.54 52.6 118.94 53.91 118.94 56.5 116.35 59.1 113.75 60.4 113.75 62.99 111.15 62.99 108.55 65.59 105.95 65.59 103.36 65.59 100.76 62.99 98.17 60.4 98.17" fill="#69b3e4"/>
          <polygon points="34.63 86.58 32.03 83.98 29.44 83.98 32.03 86.58 34.63 86.58" fill="#69b3e4"/>
          <polygon points="29.44 78.79 29.44 76.19 32.03 73.59 33.33 73.59 35.93 71 39.83 71 42.42 68.4 42.42 65.8 45.02 63.2 47.62 60.6 47.62 59.3 48.92 58.01 51.52 55.41 54.11 52.81 55.41 52.81 58.01 50.22 59.3 50.22 61.91 47.62 64.5 45.02 67.1 42.42 64.5 42.42 63.2 42.42 60.6 39.83 52.81 39.83 50.22 42.42 42.42 42.42 39.83 39.83 42.42 37.23 45.02 34.63 47.62 32.03 50.22 29.44 52.81 29.44 54.11 29.44 56.71 32.03 56.71 32.03 58.01 33.33 59.3 32.03 60.6 32.03 60.6 29.44 58.01 26.84 55.41 26.84 52.81 24.24 50.22 24.24 47.62 26.84 45.02 26.84 42.42 29.44 41.13 30.74 41.13 30.74 38.53 28.14 35.93 28.14 33.33 30.74 32.03 30.74 29.44 33.33 28.14 33.33 25.54 35.93 22.95 38.53 21.64 38.53 19.05 38.53 16.45 41.13 16.45 45.02 16.45 47.62 19.05 50.22 19.05 63.2 16.45 65.8 16.45 68.4 19.05 71 21.64 73.59 21.64 76.19 24.24 78.79 24.24 81.39 26.84 83.98 29.44 83.98 29.44 81.39 29.44 78.79" fill="#69b3e4"/>
          <polygon points="85.28 19.05 82.69 16.45 80.09 16.45 77.49 16.45 74.89 16.45 72.3 16.45 71 17.75 71 17.75 68.4 17.75 65.8 17.75 63.2 17.75 60.6 17.75 58.01 17.75 55.41 20.35 58.01 20.35 60.6 20.35 63.2 22.95 65.8 22.95 68.4 25.54 68.4 28.14 68.4 30.74 68.4 33.33 71 35.93 73.59 35.93 73.59 34.63 76.19 32.03 77.49 32.03 80.09 32.03 82.69 29.44 83.98 29.44 86.58 26.84 86.58 24.24 89.18 21.64 89.18 19.05 86.58 19.05 85.28 19.05" fill="#69b3e4"/>
          <path d="M141.13,52.81v-13H125.54l-2.6-2.6h-2.59l-2.6-2.6-2.6-2.6h-2.6l-1.3-1.29h-2.59l-2.6,2.59v2.6l-1.3,1.3v2.6l2.6,2.59-2.6,2.6H99.57l2.59,2.6v5.19l-2.59,2.6L97,58v2.6l2.6,2.59h2.59l2.6-2.59V58l2.6-2.6h5.19l2.6,2.6,2.6,2.6h2.6l2.59,2.59,2.6,2.6-1.3,1.3h-7.79l-1.3,1.3h0l-2.6-2.6L110,63.2h-2.6l-2.6,2.6H99.57L97,68.4,94.37,71v2.59l-2.6,2.6V84l2.6,2.6v2.6L97,91.77h5.19l2.6-2.59h3.9l2.59,2.59v7.8l2.6,2.59v5.2l-1.3,1.3v5.19l2.6,2.6v3.9l2.6-2.6h1.3l2.59-2.6h1.3v-2.6l2.6-2.6v-2.59l2.6-2.6V97l2.6-2.6v-2.6l2.59-2.59V84l2.6-2.59v-2.6l2.6-2.6,2.6-2.6h5.19V52.81ZM112.55,45v-2.6l2.6-2.59v2.59Zm7.8,13v-2.6l2.59-2.6v2.6l2.6,2.6-2.6,2.6Z" fill="#69b3e4"/>
        </g>
      </g>
      <g opacity="0.2">
        <path d="M10.54,79.22a67.54,67.54,0,0,0,67.53,67.53V11.68A67.54,67.54,0,0,0,10.54,79.22Z" fill="#fff"/>
      </g>
    </g>
  </g>
</svg>
