<svg xmlns="http://www.w3.org/2000/svg" viewBox="0 0 157.58 157.58">
  <title>Asset 4</title>
  <g>
    <path d="M78.79,6.49v144.6a72.3,72.3,0,0,0,0-144.6Z" fill="#e5effb"/>
    <path d="M78.79,157.58a78.79,78.79,0,1,1,78.79-78.79A78.88,78.88,0,0,1,78.79,157.58Zm0-148.22a69.43,69.43,0,1,0,69.43,69.43A69.5,69.5,0,0,0,78.79,9.36Z" fill="#69b3e4"/>
    <path d="M43.32,111.89V28.35A8.35,8.35,0,0,0,35,36.7v83.54A8.35,8.35,0,0,1,43.32,111.89Z" fill="#7dbbe7"/>
    <polygon points="51.68 28.35 43.32 28.35 43.32 111.89 51.68 111.89 118.51 111.89 118.51 28.35 51.68 28.35" fill="#97c6ec"/>
    <path d="M43.32,126.51V114h75.19v-2.09H43.32a8.36,8.36,0,0,0,0,16.71h75.19v-2.09Z" fill="#69b3e4"/>
    <path d="M37.06,120.24a6.27,6.27,0,0,0,6.26,6.27V114A6.27,6.27,0,0,0,37.06,120.24Z" fill="#fff"/>
    <g>
      <rect x="60.03" y="63.85" width="41.77" height="4.18" fill="#fff"/>
      <rect x="72.56" y="70.12" width="16.71" height="4.18" fill="#fff"/>
      <rect x="68.38" y="57.59" width="25.06" height="4.18" fill="#69b3e4"/>
      <rect x="51.68" y="36.7" width="10.44" height="2.09" fill="#fff"/>
      <rect x="97.62" y="101.45" width="12.53" height="2.09" fill="#fff"/>
      <rect x="64.21" y="36.7" width="4.18" height="2.09" fill="#fff"/>
      <path d="M114.59,108H47.24V32.27h67.35Zm-66.83-.52h66.31V32.79H47.76Z" fill="#fff"/>
    </g>
    <polygon points="43.32 113.98 43.32 126.51 116.42 126.51 116.42 120.07 43.32 113.98" fill="#fff"/>
    <polygon points="116.42 113.98 43.32 113.98 116.42 120.07 116.42 113.98" fill="#c5ddf4"/>
  </g>
</svg>
