<svg xmlns="http://www.w3.org/2000/svg" viewBox="0 0 157.58 157.58">
  <title>Asset 5</title>
  <g style="isolation: isolate">
    <g>
      <path d="M78.49,6.49v144.6a72.3,72.3,0,0,0,0-144.6Z" fill="#e5effb"/>
      <g opacity="0.75">
        <ellipse cx="54.11" cy="94.43" rx="8.53" ry="7.62" transform="translate(-54.56 88.54) rotate(-57.09)" fill="#c5ddf4"/>
      </g>
      <g opacity="0.75">
        <ellipse cx="116.58" cy="92.07" rx="8.36" ry="7.47" transform="translate(-24.06 139.91) rotate(-57.09)" fill="#c5ddf4"/>
      </g>
      <g opacity="0.75">
        <ellipse cx="115.54" cy="131.67" rx="6.99" ry="7.82" transform="translate(-14.19 13.96) rotate(-6.51)" fill="#c5ddf4"/>
      </g>
      <g opacity="0.75">
        <ellipse cx="54.69" cy="113.37" rx="8.28" ry="5.62" transform="translate(-70.2 97.67) rotate(-57.09)" fill="#c5ddf4"/>
      </g>
      <g opacity="0.75">
        <ellipse cx="72.55" cy="105.2" rx="8.28" ry="9.97" transform="translate(-55.19 108.94) rotate(-57.09)" fill="#c5ddf4"/>
      </g>
      <g opacity="0.75">
        <ellipse cx="120.26" cy="108.66" rx="8.28" ry="5.62" transform="translate(-36.31 150.58) rotate(-57.09)" fill="#c5ddf4"/>
      </g>
      <g opacity="0.75">
        <ellipse cx="134.83" cy="94.43" rx="8.28" ry="9.37" transform="translate(-17.7 156.3) rotate(-57.09)" fill="#c5ddf4"/>
      </g>
      <g opacity="0.75">
        <circle cx="122.92" cy="73.06" r="8.28" fill="#c5ddf4"/>
      </g>
      <g opacity="0.75">
        <ellipse cx="143.2" cy="71.33" rx="5.62" ry="8.28" transform="translate(-14.13 42.29) rotate(-16.02)" fill="#c5ddf4"/>
      </g>
      <ellipse cx="77.24" cy="52.49" rx="7.62" ry="8.53" transform="matrix(1, -0.01, 0.01, 1, -0.45, 0.66)" fill="#c5ddf4"/>
      <ellipse cx="88.16" cy="67.98" rx="5.62" ry="8.28" transform="translate(-0.58 0.76) rotate(-0.49)" fill="#c5ddf4"/>
      <g opacity="0.75">
        <ellipse cx="95.1" cy="52.38" rx="9.97" ry="8.28" transform="translate(-0.45 0.82) rotate(-0.49)" fill="#c5ddf4"/>
      </g>
      <g opacity="0.75">
        <circle cx="86.73" cy="34.87" r="8.28" fill="#c5ddf4"/>
      </g>
      <g opacity="0.75">
        <ellipse cx="99.02" cy="133.29" rx="8.53" ry="7.62" transform="translate(-63.96 165.04) rotate(-64.42)" fill="#c5ddf4"/>
      </g>
      <g opacity="0.75">
        <ellipse cx="96.03" cy="114.57" rx="8.28" ry="5.62" transform="translate(-48.78 151.71) rotate(-64.42)" fill="#c5ddf4"/>
      </g>
      <g opacity="0.75">
        <ellipse cx="80.07" cy="123.46" rx="8.28" ry="9.97" transform="translate(-65.86 142.37) rotate(-64.42)" fill="#c5ddf4"/>
      </g>
      <g opacity="0.75">
        <circle cx="82.76" cy="144.94" r="8.28" fill="#c5ddf4"/>
      </g>
      <ellipse cx="92.43" cy="94.43" rx="8.53" ry="7.62" transform="translate(-37.06 120.71) rotate(-57.09)" fill="#c5ddf4"/>
      <g opacity="0.75">
        <ellipse cx="136.07" cy="52.76" rx="8.28" ry="9.97" transform="translate(17.84 138.31) rotate(-57.09)" fill="#c5ddf4"/>
      </g>
      <g opacity="0.75">
        <circle cx="103.64" cy="74.24" r="8.28" fill="#c5ddf4"/>
      </g>
      <g opacity="0.75">
        <ellipse cx="17.06" cy="94.46" rx="8.53" ry="7.62" transform="translate(-71.5 57.46) rotate(-57.09)" fill="#c5ddf4"/>
      </g>
      <g opacity="0.75">
        <ellipse cx="35.51" cy="105.23" rx="8.28" ry="9.97" transform="translate(-72.13 77.86) rotate(-57.09)" fill="#c5ddf4"/>
      </g>
      <g opacity="0.75">
        <circle cx="34.68" cy="84.97" r="8.28" fill="#c5ddf4"/>
      </g>
      <g opacity="0.75">
        <ellipse cx="46.19" cy="22.82" rx="8.53" ry="7.62" transform="translate(1.93 49.2) rotate(-57.09)" fill="#c5ddf4"/>
      </g>
      <ellipse cx="46.77" cy="41.77" rx="8.28" ry="5.62" transform="translate(-13.71 58.33) rotate(-57.09)" fill="#c5ddf4"/>
      <ellipse cx="64.63" cy="33.6" rx="8.28" ry="9.97" transform="translate(1.3 69.6) rotate(-57.09)" fill="#c5ddf4"/>
      <g opacity="0.75">
        <circle cx="68.62" cy="9.36" r="8.28" fill="#c5ddf4"/>
      </g>
      <g opacity="0.75">
        <ellipse cx="19.01" cy="74.83" rx="8.53" ry="7.62" transform="translate(-54.14 50.13) rotate(-57.09)" fill="#c5ddf4"/>
      </g>
      <g opacity="0.75">
        <ellipse cx="34.35" cy="124.95" rx="8.28" ry="5.62" transform="translate(-89.21 85.89) rotate(-57.09)" fill="#c5ddf4"/>
      </g>
      <g opacity="0.75">
        <ellipse cx="26.57" cy="46.01" rx="8.28" ry="9.97" transform="translate(-26.49 43.31) rotate(-57.09)" fill="#c5ddf4"/>
      </g>
      <g opacity="0.75">
        <circle cx="47.44" cy="132.32" r="8.28" fill="#c5ddf4"/>
      </g>
      <g opacity="0.75">
        <ellipse cx="113.3" cy="22.82" rx="8.28" ry="9.97" transform="translate(32.57 105.53) rotate(-57.09)" fill="#c5ddf4"/>
      </g>
      <circle cx="57.72" cy="58.1" r="31.1" fill="#fff"/>
      <path d="M78.79,157.58a78.79,78.79,0,1,1,78.79-78.79A78.88,78.88,0,0,1,78.79,157.58Zm0-148.22a69.43,69.43,0,1,0,69.43,69.43A69.5,69.5,0,0,0,78.79,9.36Z" fill="#69b3e4"/>
      <g>
        <path d="M49.19,70S49,48,70.37,40.73c0,0,2.37-.64,1.11-3.48s-8.22-5.85-16.29-3.32S39.86,45.47,38.12,53.53s1,16.75,3.32,18.65S50,75,49.19,70Z" fill="#c5ddf4"/>
        <g>
          <circle cx="58.24" cy="42.8" r="2.49" fill="#69b3e4"/>
          <circle cx="54.01" cy="45.29" r="2.49" fill="#69b3e4"/>
          <circle cx="50.27" cy="48.98" r="2.49" fill="#69b3e4"/>
          <circle cx="48.63" cy="53.61" r="2.49" fill="#69b3e4"/>
          <circle cx="46.69" cy="57.55" r="2.49" fill="#69b3e4"/>
          <circle cx="46.45" cy="62.45" r="2.49" fill="#69b3e4"/>
          <circle cx="56.17" cy="41.29" r="2.49" fill="#69b3e4"/>
          <circle cx="51.94" cy="43.78" r="2.49" fill="#69b3e4"/>
          <circle cx="48.2" cy="47.48" r="2.49" fill="#69b3e4"/>
          <circle cx="46.56" cy="52.1" r="2.49" fill="#69b3e4"/>
          <circle cx="44.62" cy="56.04" r="2.49" fill="#69b3e4"/>
          <circle cx="44.38" cy="60.94" r="2.49" fill="#69b3e4"/>
        </g>
      </g>
      <g>
        <path d="M77.42,78.71S64.24,67.42,71,50.93c0,0,.85-1.74-1.5-2.46s-7.75,1.87-10.42,8S58,71.58,61.88,76.79s10.48,8.11,12.84,7.68S80.84,80.86,77.42,78.71Z" fill="#c5ddf4"/>
        <g>
          <circle cx="65.91" cy="59.24" r="1.97" fill="#69b3e4"/>
          <circle cx="65.2" cy="63.05" r="1.97" fill="#69b3e4"/>
          <circle cx="65.47" cy="67.19" r="1.97" fill="#69b3e4"/>
          <circle cx="67.37" cy="70.57" r="1.97" fill="#69b3e4"/>
          <circle cx="68.71" cy="73.77" r="1.97" fill="#69b3e4"/>
          <circle cx="71.51" cy="76.45" r="1.97" fill="#69b3e4"/>
          <circle cx="63.94" cy="59.69" r="1.97" fill="#69b3e4"/>
          <circle cx="63.23" cy="63.5" r="1.97" fill="#69b3e4"/>
          <circle cx="63.5" cy="67.65" r="1.97" fill="#69b3e4"/>
          <circle cx="65.4" cy="71.02" r="1.97" fill="#69b3e4"/>
          <circle cx="66.74" cy="74.22" r="1.97" fill="#69b3e4"/>
          <circle cx="69.54" cy="76.9" r="1.97" fill="#69b3e4"/>
        </g>
      </g>
      <g style="mix-blend-mode: multiply">
        <path d="M77.53,40.75A29.62,29.62,0,1,0,86.2,61.69,29.42,29.42,0,0,0,77.53,40.75Zm-.89,41a28.35,28.35,0,1,1,8.3-20A28.17,28.17,0,0,1,76.64,81.73Z" fill="#c5ddf4"/>
        <path d="M73.09,79.73a26.81,26.81,0,0,1-43-23.39A26.81,26.81,0,1,0,83.16,63.5,26.75,26.75,0,0,1,73.09,79.73Z" fill="#c5ddf4"/>
        <path d="M87,82.3a3.78,3.78,0,0,0-1.21-.81A35.27,35.27,0,1,0,56.59,97a35,35,0,0,0,21-6.9,3.74,3.74,0,0,0,.7,1l3.81,3.8L90.8,86.1ZM34.91,83.37a30.66,30.66,0,1,1,21.68,9A30.7,30.7,0,0,1,34.91,83.37Z" fill="#c5ddf4"/>
        <rect x="98.67" y="89.06" width="12.37" height="39.67" transform="translate(-46.29 106.04) rotate(-45)" fill="#c5ddf4"/>
        <rect x="82.44" y="91.41" width="12.37" height="2.53" transform="translate(-39.57 89.81) rotate(-45)" fill="#c5ddf4"/>
        <path d="M126.4,121.7l-1.85-1.85-8.74,8.75,1.84,1.84c1.81,1.81,5.11,1.43,7.38-.84l.52-.52C127.82,126.81,128.2,123.5,126.4,121.7Z" fill="#c5ddf4"/>
      </g>
      <g>
        <path d="M78.87,37.17A29.61,29.61,0,1,0,87.54,58.1,29.39,29.39,0,0,0,78.87,37.17Zm-.89,41a28.35,28.35,0,1,1,8.3-20.05A28.16,28.16,0,0,1,78,78.15Z" fill="#69b3e4"/>
        <path d="M74.43,76.14a26.81,26.81,0,0,1-43-23.38A26.81,26.81,0,1,0,84.5,59.91,26.72,26.72,0,0,1,74.43,76.14Z" fill="#69b3e4"/>
        <path d="M88.34,78.71a3.6,3.6,0,0,0-1.21-.8,35.19,35.19,0,1,0-8.23,8.58,3.86,3.86,0,0,0,.7,1l3.8,3.8,8.75-8.74ZM36.26,79.78a30.65,30.65,0,1,1,21.68,9A30.68,30.68,0,0,1,36.26,79.78Z" fill="#69b3e4"/>
        <rect x="100.01" y="85.48" width="12.37" height="39.67" transform="translate(-43.36 105.94) rotate(-45)" fill="#69b3e4"/>
        <rect x="83.79" y="87.82" width="12.37" height="2.53" transform="translate(-36.64 89.71) rotate(-45)" fill="#69b3e4"/>
        <path d="M127.74,118.11l-1.84-1.84L117.15,125l1.85,1.85c1.8,1.8,5.1,1.42,7.37-.85l.53-.52C129.17,123.22,129.55,119.92,127.74,118.11Z" fill="#69b3e4"/>
      </g>
    </g>
  </g>
</svg>
