<svg xmlns="http://www.w3.org/2000/svg" viewBox="0 0 62.32 62.32">
  <title>Asset 14</title>
  <g>
    <circle cx="31.16" cy="31.16" r="31.16" fill="#69b3e4"/>
    <path d="M37.69,45.26q0,1-4.5,4.48c-3,2.34-5.72,3.52-8.15,3.52A4.61,4.61,0,0,1,21.41,52a4.25,4.25,0,0,1-1.14-2.9,5.74,5.74,0,0,1,.3-1.88c.2-.57.42-1.16.66-1.76l5.66-11.75a15.07,15.07,0,0,0,.69-1.64,3.47,3.47,0,0,0,.21-1.1,1.06,1.06,0,0,0-.18-.69.6.6,0,0,0-.48-.21c-.52,0-1.52.79-3,2.36s-2.38,2.36-2.65,2.36a1.29,1.29,0,0,1-1-.66,2.35,2.35,0,0,1-.48-.84,4,4,0,0,1,1.14-1.93A25.61,25.61,0,0,1,24,28.5a20.29,20.29,0,0,1,3.73-2.56,8.16,8.16,0,0,1,3.84-1.19,5.07,5.07,0,0,1,4,1.52A5.31,5.31,0,0,1,37,29.94a10.86,10.86,0,0,1-.18,1.9A6.59,6.59,0,0,1,36,33.93l-4.53,10a21.58,21.58,0,0,0-.78,2A4.51,4.51,0,0,0,30.47,47q0,.36.18.45a.8.8,0,0,0,.36.09c.87,0,1.9-.63,3.07-1.88s1.92-1.88,2.24-1.88.57.21.89.63A2,2,0,0,1,37.69,45.26Zm4.59-30.77A5.26,5.26,0,0,1,40.7,18.3a5.36,5.36,0,0,1-7.66,0,5.32,5.32,0,0,1,0-7.63,5.36,5.36,0,0,1,7.66,0A5.28,5.28,0,0,1,42.28,14.49Z" fill="#fff"/>
  </g>
</svg>
