<svg xmlns="http://www.w3.org/2000/svg" viewBox="0 0 62.32 62.32">
  <title>Asset 19</title>
  <g>
    <circle cx="31.16" cy="31.16" r="31.16" fill="#69b3e4"/>
    <path d="M46.62,20.08c0,11.08-15.08,37.62-15.08,37.62S15.7,31.71,15.7,20.08a15.46,15.46,0,0,1,30.92,0Z" fill="#fff"/>
    <g>
      <g>
        <circle cx="31.01" cy="20.48" r="12.74" fill="#69b3e4"/>
        <path d="M31,34.09A13.62,13.62,0,1,1,44.63,20.48,13.63,13.63,0,0,1,31,34.09ZM31,8.61A11.87,11.87,0,1,0,42.88,20.48,11.88,11.88,0,0,0,31,8.61Z" fill="#69b3e4"/>
      </g>
      <path d="M41.38,9.37A13.59,13.59,0,0,1,31,14.16a13.49,13.49,0,0,1-9.63-4l1.24-1.23A11.78,11.78,0,0,0,31,12.41,11.86,11.86,0,0,0,40,8.34" fill="#fff"/>
      <path d="M22.28,32.2,21,31a13.62,13.62,0,0,1,19.47-.57L39.24,31.7a11.87,11.87,0,0,0-17,.5Z" fill="#fff"/>
      <path d="M31.08,35.17c-4.4,0-7.86-6.46-7.86-14.7s3.46-14.7,7.86-14.7,7.86,6.46,7.86,14.7S35.49,35.17,31.08,35.17Zm0-27.51c-3.31,0-6.1,5.87-6.1,12.81s2.79,12.8,6.1,12.8,6.1-5.86,6.1-12.8S34.39,7.66,31.08,7.66Z" fill="#fff"/>
      <rect x="16.57" y="19.6" width="29.03" height="1.75" fill="#fff"/>
      <rect x="30.13" y="5.77" width="1.75" height="29.41" fill="#fff"/>
    </g>
  </g>
</svg>
