<svg xmlns="http://www.w3.org/2000/svg" viewBox="0 0 62.32 62.32">
  <title>Asset 16</title>
  <g>
    <circle cx="31.66" cy="16.28" r="8.75" fill="#69c8f3" stroke="#fff" stroke-miterlimit="10"/>
    <path d="M33,47.53H41.7a1.77,1.77,0,0,0,1.59-1.09c.08-.66-3.17-16.75-3.92-18.25a2.1,2.1,0,0,0-2.17-1.25H26.12A2.1,2.1,0,0,0,24,28.19c-.75,1.5-4,17.59-3.91,18.25a1.75,1.75,0,0,0,1.58,1.09H33Z" fill="#69c8f3" stroke="#fff" stroke-miterlimit="10"/>
    <path d="M32.64,45.26h6.67a1.34,1.34,0,0,1,1.2.83c.06.5-2.41,12.75-3,13.89a1.6,1.6,0,0,1-1.65,1H27.44a1.6,1.6,0,0,1-1.65-1c-.57-1.14-3-13.39-3-13.89A1.35,1.35,0,0,1,24,45.26h8.62Z" fill="#69c8f3" stroke="#fff" stroke-miterlimit="10"/>
    <circle cx="31.16" cy="31.16" r="31.16" fill="#69b3e4"/>
    <polygon points="34.24 9.9 25.67 9.9 21.39 17.32 25.67 24.74 34.24 24.74 38.52 17.32 34.24 9.9" fill="#fff" stroke="#69b3e4" stroke-miterlimit="10" stroke-width="2"/>
    <polygon points="51.52 14.49 42.95 14.49 38.67 21.91 42.95 29.32 51.52 29.32 55.8 21.91 51.52 14.49" fill="#fff" stroke="#69b3e4" stroke-miterlimit="10" stroke-width="2"/>
    <polygon points="34.24 24.74 25.67 24.74 21.39 32.16 25.67 39.58 34.24 39.58 38.52 32.16 34.24 24.74" fill="#fff" stroke="#69b3e4" stroke-miterlimit="10" stroke-width="2"/>
    <polygon points="47.21 32.16 38.65 32.16 34.36 39.58 38.65 46.99 47.21 46.99 51.49 39.58 47.21 32.16" fill="#fff" stroke="#69b3e4" stroke-miterlimit="10" stroke-width="2"/>
    <polygon points="21.45 32.16 12.89 32.16 8.61 39.58 12.89 46.99 21.45 46.99 25.74 39.58 21.45 32.16" fill="#fff" stroke="#69b3e4" stroke-miterlimit="10" stroke-width="2"/>
    <polygon points="34.24 39.58 25.67 39.58 21.39 46.99 25.67 54.41 34.24 54.41 38.52 46.99 34.24 39.58" fill="#fff" stroke="#69b3e4" stroke-miterlimit="10" stroke-width="2"/>
    <polygon points="21.45 17.32 12.89 17.32 8.61 24.74 12.89 32.16 21.45 32.16 25.74 24.74 21.45 17.32" fill="#fff" stroke="#69b3e4" stroke-miterlimit="10" stroke-width="2"/>
  </g>
</svg>
