<svg xmlns="http://www.w3.org/2000/svg" viewBox="0 0 62.32 62.32">
  <title>Asset 28</title>
  <g>
    <circle cx="31.16" cy="31.16" r="31.16" fill="#69b3e4"/>
    <g>
      <path d="M17.29,41.75a7.48,7.48,0,0,1-2.9-.59l-1.12-.48a7.44,7.44,0,0,1-3.94-9.76l4.75-11.2,2.19.94L11.52,31.85a5.1,5.1,0,0,0,2.69,6.64l1.11.47A5.07,5.07,0,0,0,22,36.28L26.75,25l2.19.93L24.16,37.21a7.5,7.5,0,0,1-6.87,4.54Z" fill="#fff"/>
      <g>
        <path d="M27.44,26.43l4.78-11.27A6.28,6.28,0,0,0,28.91,7l-1.12-.48a6.27,6.27,0,0,0-8.2,3.32l-4.21,9.91-.29.68c-.7,1.66,1.56,4.2,5.05,5.68s6.88,1.34,7.58-.32Z" fill="#fff"/>
        <path d="M24.63,28.28a13,13,0,0,1-5-1.11C15.44,25.37,13,22.26,14,19.92l4.5-10.59a7.45,7.45,0,0,1,9.76-3.95l1.12.48a7.45,7.45,0,0,1,3.95,9.76L28.53,26.9l-.09,0A4.74,4.74,0,0,1,24.63,28.28Zm.72-21.1a5.07,5.07,0,0,0-4.67,3.08l-4.49,10.6c-.29.67,1.17,2.74,4.41,4.11s5.72,1,6,.33l4.5-10.61a5.07,5.07,0,0,0-2.68-6.64l-1.12-.47A4.89,4.89,0,0,0,25.35,7.18Z" fill="#fff"/>
      </g>
      <g>
        <path d="M18.66,21.49a1,1,0,0,1,0-.24,1.73,1.73,0,0,1,.08-.27.6.6,0,0,1,.61-.43l7,0-.33.89H24l-1,2.64,1.52,1.28-.32.86Zm4.59,0-3.52-.06,2.7,2.26Z" fill="#69b3e4"/>
        <path d="M20.21,17.18a11.72,11.72,0,0,1,.48-1.56,3.46,3.46,0,0,1,1.15-1.74,1.76,1.76,0,0,1,1.64-.08,2.4,2.4,0,0,1,.83.52,1.74,1.74,0,0,1,.46.74,2,2,0,0,1,.08.88l3.49-.73a1.06,1.06,0,0,1-.08.49.86.86,0,0,1-.64.55l-2.94.64-.32.87,2.67,1-.31.85Zm3.68-.38c.4-1.08.17-1.77-.69-2.09a1.14,1.14,0,0,0-1,0,2.19,2.19,0,0,0-.74,1.14,4.75,4.75,0,0,0-.22.71l2.44.91Z" fill="#69b3e4"/>
        <path d="M23.39,10.82l-.77,2.07a1.47,1.47,0,0,1-.28-.08.43.43,0,0,1-.28-.29.77.77,0,0,1,0-.47l1.66-4.48.23.06a.5.5,0,0,1,.32.3.7.7,0,0,1,0,.49L23.71,10l5.78,2.14-.31.86Z" fill="#69b3e4"/>
      </g>
    </g>
    <g>
      <circle cx="44.28" cy="19.47" r="9.57" fill="#fff"/>
      <g>
        <path d="M43.37,16.75a2.63,2.63,0,0,0-.7-.71,2.31,2.31,0,0,0-.89-.32,2,2,0,0,0-1.79.53,3.66,3.66,0,0,0-.92,2.11,3.56,3.56,0,0,0,.28,2.3A2.05,2.05,0,0,0,41,21.71a2.13,2.13,0,0,0,1-.08,2.32,2.32,0,0,0,.88-.49,1.25,1.25,0,0,1,.23.35.61.61,0,0,1,.08.31.47.47,0,0,1-.21.3,2.35,2.35,0,0,1-1,.4,3.55,3.55,0,0,1-1.22,0,3,3,0,0,1-2.25-1.36,4.23,4.23,0,0,1-.41-2.93,4.3,4.3,0,0,1,1.27-2.7,3,3,0,0,1,2.55-.66,3.61,3.61,0,0,1,1,.33,2.42,2.42,0,0,1,.75.54.66.66,0,0,1,.24.5,1.11,1.11,0,0,1-.38.54Z" fill="#69b3e4"/>
        <path d="M44.61,21.91a3.82,3.82,0,0,1-.35-1.28,6.1,6.1,0,0,1,0-1.53,5,5,0,0,1,.7-2A3,3,0,0,1,46.32,16a3.17,3.17,0,0,1,1.78-.19,3.09,3.09,0,0,1,1.62.71A2.86,2.86,0,0,1,50.57,18,5,5,0,0,1,50.63,20a4.45,4.45,0,0,1-1.25,2.71,2.91,2.91,0,0,1-2.53.68A2.79,2.79,0,0,1,44.61,21.91ZM46,22.2a2,2,0,0,0,1,.39A1.84,1.84,0,0,0,48.75,22a3.82,3.82,0,0,0,.88-2.14,3.67,3.67,0,0,0-.21-2.24,1.87,1.87,0,0,0-1.48-1,1.94,1.94,0,0,0-1.74.5,3.56,3.56,0,0,0-.89,2.08,4.7,4.7,0,0,0,0,1.77A2.12,2.12,0,0,0,46,22.2Zm1,1.7a.54.54,0,0,1,.28-.06.69.69,0,0,1,.25.09,3.3,3.3,0,0,1,.39.31,2.51,2.51,0,0,0,.67.46,3.15,3.15,0,0,0,.75.22,1,1,0,0,1-.28.59.6.6,0,0,1-.52.17,1.91,1.91,0,0,1-1-.57,3.73,3.73,0,0,1-.8-1A.6.6,0,0,1,47.05,23.9Z" fill="#69b3e4"/>
      </g>
      <line x1="45.17" y1="6.92" x2="42.63" y2="32.57" fill="none" stroke="#69b3e4" stroke-miterlimit="10" opacity="0.32"/>
    </g>
    <g>
      <g>
        <path d="M47.73,33.21a6.85,6.85,0,0,1,1.8,2.12l.56,1a7,7,0,0,1-2.74,9.55l-10,5.57-1.09-2,10-5.56a4.8,4.8,0,0,0,1.86-6.5l-.55-1a4.8,4.8,0,0,0-6.5-1.86L31,40.16l-1.09-2L40,32.59a7,7,0,0,1,5.34-.6A7,7,0,0,1,47.73,33.21Z" fill="#fff"/>
        <g>
          <path d="M31.28,38.7l-10.1,5.61a5.91,5.91,0,0,0-2.3,8l.55,1a5.92,5.92,0,0,0,8,2.3l8.88-4.93.61-.34c1.49-.82,1.29-4-.45-7.15s-4.34-5-5.83-4.17Z" fill="#fff"/>
          <path d="M34.45,39a12,12,0,0,1,3,3.71c2.11,3.78,2.11,7.52,0,8.68L28,56.62a7,7,0,0,1-9.55-2.74l-.56-1a7,7,0,0,1,2.74-9.56l10.11-5.6,0,.08A4.49,4.49,0,0,1,34.45,39ZM21.65,54.23a4.77,4.77,0,0,0,5.26.42l9.5-5.27c.6-.33.72-2.72-.89-5.62S31.84,39.7,31.23,40l-9.51,5.27a4.79,4.79,0,0,0-1.86,6.5l.56,1A4.78,4.78,0,0,0,21.65,54.23Z" fill="#fff"/>
        </g>
      </g>
      <g>
        <path d="M18.8,48.44a15.11,15.11,0,0,1,1.38-.95,3.59,3.59,0,0,1,2.08-.66,1.8,1.8,0,0,1,1.39,1A2.18,2.18,0,0,1,24,49.69a3.18,3.18,0,0,1-1.48,1.6l-.64.38L23.24,54l-.78.48Zm3,2.36a4.3,4.3,0,0,0,1-.79,1.21,1.21,0,0,0,.34-.77,1.73,1.73,0,0,0-.28-.9,1.23,1.23,0,0,0-.9-.64,2.27,2.27,0,0,0-1.32.41,6.88,6.88,0,0,0-.7.47L21.43,51Z" fill="#69b3e4"/>
        <path d="M23.68,45.49c.5-.38,1-.69,1.38-1a3.58,3.58,0,0,1,2.07-.66,1.81,1.81,0,0,1,1.4,1,2.16,2.16,0,0,1,.31,1.88,3.22,3.22,0,0,1-1.48,1.6l-.65.39,1.41,2.33-.79.47Zm3,2.36a4.3,4.3,0,0,0,1-.79,1.23,1.23,0,0,0,.33-.77,1.59,1.59,0,0,0-.28-.89,1.17,1.17,0,0,0-.9-.64,2.21,2.21,0,0,0-1.32.4,7,7,0,0,0-.69.47l1.47,2.44Z" fill="#69b3e4"/>
        <path d="M32.14,47.5a3.57,3.57,0,0,1-1-.72,5.88,5.88,0,0,1-.9-1.15,4.59,4.59,0,0,1-.68-1.87,2.76,2.76,0,0,1,.26-1.65A3.09,3.09,0,0,1,31,40.89a2.84,2.84,0,0,1,1.62-.47,2.75,2.75,0,0,1,1.53.55,5.16,5.16,0,0,1,1.3,1.48,4.3,4.3,0,0,1,.73,2.76,2.79,2.79,0,0,1-1.44,2A2.7,2.7,0,0,1,32.14,47.5Zm1.22-.65a1.89,1.89,0,0,0,1-.32,1.79,1.79,0,0,0,.94-1.45A3.73,3.73,0,0,0,34.61,43a3.48,3.48,0,0,0-1.53-1.51,1.79,1.79,0,0,0-1.68.17,1.87,1.87,0,0,0-1,1.43A3.46,3.46,0,0,0,31,45.12a4.65,4.65,0,0,0,1.1,1.29A2,2,0,0,0,33.36,46.85Zm1.79.63a.51.51,0,0,1,.17-.22.52.52,0,0,1,.24-.08,2.16,2.16,0,0,1,.47,0,2.66,2.66,0,0,0,.77-.07,3,3,0,0,0,.69-.3,1,1,0,0,1,.16.61.55.55,0,0,1-.29.43,1.77,1.77,0,0,1-1,.18,3.65,3.65,0,0,1-1.21-.28A.54.54,0,0,1,35.15,47.48Z" fill="#69b3e4"/>
      </g>
    </g>
  </g>
</svg>
