<svg xmlns="http://www.w3.org/2000/svg" viewBox="0 0 62.32 62.32">
  <title>Asset 26</title>
  <g>
    <circle cx="31.16" cy="31.16" r="31.16" fill="#69b3e4"/>
    <path d="M43.22,8.23c0,12.75-5.34,23.08-11.92,23.08S19.38,21,19.38,8.23" fill="none" stroke="#fff" stroke-linecap="round" stroke-miterlimit="10" stroke-width="3"/>
    <path d="M19.38,54.4c0-12.75,5.34-23.09,11.92-23.09S43.22,41.65,43.22,54.4" fill="none" stroke="#fff" stroke-linecap="round" stroke-miterlimit="10" stroke-width="3"/>
    <g opacity="0.45">
      <path d="M34.66,26.4H27.94a1.5,1.5,0,0,1,0-3h6.72a1.5,1.5,0,0,1,0,3Z" fill="none" stroke="#fff" stroke-miterlimit="10"/>
    </g>
    <g opacity="0.45">
      <path d="M38.77,10.67H23.83a1.5,1.5,0,0,1,0-3H38.77a1.5,1.5,0,0,1,0,3Z" fill="none" stroke="#fff" stroke-miterlimit="10"/>
    </g>
    <g opacity="0.45">
      <path d="M34.66,39.4H27.94a1.5,1.5,0,0,1,0-3h6.72a1.5,1.5,0,0,1,0,3Z" fill="none" stroke="#fff" stroke-miterlimit="10"/>
    </g>
    <g opacity="0.45">
      <path d="M38.77,55.13H23.83a1.5,1.5,0,0,1,0-3H38.77a1.5,1.5,0,0,1,0,3Z" fill="none" stroke="#fff" stroke-miterlimit="10"/>
    </g>
    <g>
      <path d="M28.06,19.84a1.8,1.8,0,0,1-.53.31,3.07,3.07,0,0,1-.53.15,3.76,3.76,0,0,1-.71.06A3.36,3.36,0,0,1,25,20.12a2.52,2.52,0,0,1-.93-.69,3.08,3.08,0,0,1-.54-1.05,5,5,0,0,1-.17-1.33,4.43,4.43,0,0,1,.19-1.34,3.05,3.05,0,0,1,.55-1.06A2.6,2.6,0,0,1,25,14a3.29,3.29,0,0,1,1.31-.25,2.76,2.76,0,0,1,.67.07,3,3,0,0,1,.52.15,2.09,2.09,0,0,1,.37.19l.23.17a.9.9,0,0,1,.15.18.46.46,0,0,1,.06.23.66.66,0,0,1-.14.38,2.15,2.15,0,0,1-.32.35l-.26-.23a1.69,1.69,0,0,0-.31-.21,2.37,2.37,0,0,0-.4-.15,2,2,0,0,0-.5-.06,1.58,1.58,0,0,0-.82.19,1.62,1.62,0,0,0-.53.51,2.3,2.3,0,0,0-.28.72,3.75,3.75,0,0,0-.09.82,4,4,0,0,0,.09.86,2.1,2.1,0,0,0,.29.72,1.68,1.68,0,0,0,.55.51,1.8,1.8,0,0,0,.84.19,1.87,1.87,0,0,0,.49-.07,2.09,2.09,0,0,0,.4-.16,2.23,2.23,0,0,0,.3-.2l.21-.18.14.16c.05.06.09.13.14.2a2.12,2.12,0,0,1,.11.21.49.49,0,0,1,.05.19.46.46,0,0,1-.05.21A1,1,0,0,1,28.06,19.84Z" fill="#fff"/>
      <path d="M33.64,15.65a2.53,2.53,0,0,1-.1.71,2,2,0,0,1-.27.53,2,2,0,0,1-.39.38,2.46,2.46,0,0,1-.45.24L34,20.13a2.4,2.4,0,0,1-.38.12,1.81,1.81,0,0,1-.38.05,1.08,1.08,0,0,1-.59-.16,1.33,1.33,0,0,1-.44-.49L31.12,17.8H30.6v2.4H29.29V13.86l.87-.07c.3,0,.57,0,.81,0a3.46,3.46,0,0,1,2,.46A1.65,1.65,0,0,1,33.64,15.65Zm-1.37.13a1,1,0,0,0-.32-.85,1.36,1.36,0,0,0-.85-.24h-.3l-.21,0v2.2H31a1.38,1.38,0,0,0,.9-.28A1.08,1.08,0,0,0,32.27,15.78Z" fill="#fff"/>
      <path d="M36,14.89H34c0-.08,0-.14,0-.19v-.18a.67.67,0,0,1,.19-.47.79.79,0,0,1,.62-.22h4.47a2.83,2.83,0,0,1,0,.41.73.73,0,0,1-.17.46.8.8,0,0,1-.61.2H37.3V20.2H36Z" fill="#fff"/>
    </g>
    <g>
      <path d="M28.06,48.57a1.33,1.33,0,0,1-.19.14,1.78,1.78,0,0,1-.34.17A3.07,3.07,0,0,1,27,49a3.76,3.76,0,0,1-.71.06A3.19,3.19,0,0,1,25,48.84a2.32,2.32,0,0,1-.93-.69,2.94,2.94,0,0,1-.54-1,5.1,5.1,0,0,1-.17-1.33,4.43,4.43,0,0,1,.19-1.34,3.05,3.05,0,0,1,.55-1.06,2.6,2.6,0,0,1,.93-.7,3.13,3.13,0,0,1,1.31-.25,2.76,2.76,0,0,1,.67.07,3,3,0,0,1,.52.15,2.09,2.09,0,0,1,.37.19l.23.17a.9.9,0,0,1,.15.18.46.46,0,0,1,.06.23.66.66,0,0,1-.14.38,2.66,2.66,0,0,1-.32.35l-.26-.23a1.69,1.69,0,0,0-.31-.21,2.37,2.37,0,0,0-.4-.15,2,2,0,0,0-.5-.06,1.58,1.58,0,0,0-.82.19,1.62,1.62,0,0,0-.53.51,2.3,2.3,0,0,0-.28.72,3.75,3.75,0,0,0-.09.82,4,4,0,0,0,.09.86,2.1,2.1,0,0,0,.29.72,1.68,1.68,0,0,0,.55.51,1.8,1.8,0,0,0,.84.19,1.87,1.87,0,0,0,.49-.07,3,3,0,0,0,.4-.16l.3-.2.21-.18.14.16c.05.06.09.13.14.2a2.12,2.12,0,0,1,.11.21.49.49,0,0,1,.05.19.46.46,0,0,1-.05.21A1,1,0,0,1,28.06,48.57Z" fill="#fff"/>
      <path d="M33.64,44.38a2.53,2.53,0,0,1-.1.71,2,2,0,0,1-.27.53,2,2,0,0,1-.39.38,2.46,2.46,0,0,1-.45.24L34,48.86a2.4,2.4,0,0,1-.38.12,1.76,1.76,0,0,1-.38,0,1.08,1.08,0,0,1-.59-.15,1.33,1.33,0,0,1-.44-.49l-1.09-1.85H30.6v2.4H29.29V42.59l.87-.07c.3,0,.57,0,.81,0A3.46,3.46,0,0,1,33,43,1.65,1.65,0,0,1,33.64,44.38Zm-1.37.12a1,1,0,0,0-.32-.84,1.36,1.36,0,0,0-.85-.24h-.3l-.21,0v2.2H31a1.38,1.38,0,0,0,.9-.28A1.09,1.09,0,0,0,32.27,44.5Z" fill="#fff"/>
      <path d="M36,43.62H34c0-.08,0-.14,0-.19v-.18a.67.67,0,0,1,.19-.47.79.79,0,0,1,.62-.22h4.47a2.83,2.83,0,0,1,0,.41.68.68,0,0,1-.17.45.76.76,0,0,1-.61.21H37.3v5.31H36Z" fill="#fff"/>
    </g>
  </g>
</svg>
