<svg xmlns="http://www.w3.org/2000/svg" viewBox="0 0 62.32 62.32">
  <title>Asset 22</title>
  <g>
    <circle cx="31.16" cy="31.16" r="31.16" fill="#69b3e4"/>
    <path d="M17.86,40.05,17,40C9.2,39.57,4.21,33.09,4,32.82A2,2,0,1,1,7.19,30.4c.08.1,4.16,5.31,10.06,5.64,3.92.22,7.88-1.74,11.79-5.82,4.65-4.84,9.66-7.2,14.92-7,8.34.26,14,6.86,14.28,7.14a2,2,0,1,1-3.05,2.59s-4.83-5.55-11.38-5.73C39.75,27.06,35.75,29,31.93,33,27.43,37.68,22.7,40.05,17.86,40.05Z" fill="#fff"/>
    <polygon points="9.93 23.48 25.57 23.48 17.75 36.09 9.93 23.48" fill="#fff"/>
    <polygon points="51.16 39.78 35.53 39.96 43.2 27.26 51.16 39.78" fill="#fff"/>
  </g>
</svg>
