<svg xmlns="http://www.w3.org/2000/svg" viewBox="0 0 62.32 62.32">
  <title>Asset 6</title>
  <g>
    <circle cx="31.16" cy="31.16" r="31.16" fill="#69b3e4"/>
    <g>
      <path d="M9.87,16.76a29.86,29.86,0,0,1,5-1.32V28.11l4.59-2,4.92,2V15.19a30.26,30.26,0,0,1,6.76,1.57,32.73,32.73,0,0,1,21.28,0v29.4a31.6,31.6,0,0,0-21.28,0,32.25,32.25,0,0,0-21.29,0Z" fill="#fff"/>
      <g>
        <path d="M48.64,22.52a.72.72,0,0,1-.29-.06c-7.47-2.77-12-.1-12-.07A.87.87,0,0,1,35.1,22a1.11,1.11,0,0,1,.36-1.41c.2-.13,5.17-3.15,13.46-.08a1.07,1.07,0,0,1,.59,1.31A.94.94,0,0,1,48.64,22.52Z" fill="#69b3e4"/>
        <path d="M48.64,28.74a.72.72,0,0,1-.29-.06c-7.47-2.77-12-.1-12-.07a.87.87,0,0,1-1.25-.41,1.11,1.11,0,0,1,.36-1.41c.2-.13,5.17-3.15,13.46-.08A1.07,1.07,0,0,1,49.51,28,.94.94,0,0,1,48.64,28.74Z" fill="#69b3e4"/>
        <path d="M48.64,35a.72.72,0,0,1-.29-.06c-7.47-2.77-12-.1-12-.07a.87.87,0,0,1-1.25-.41A1.11,1.11,0,0,1,35.46,33c.2-.13,5.17-3.15,13.46-.08a1.07,1.07,0,0,1,.59,1.31A.94.94,0,0,1,48.64,35Z" fill="#69b3e4"/>
        <path d="M48.64,41.4a.93.93,0,0,1-.29,0c-7.47-2.77-12-.1-12-.08a.87.87,0,0,1-1.25-.41,1.1,1.1,0,0,1,.36-1.4c.2-.13,5.17-3.16,13.46-.08a1.06,1.06,0,0,1,.59,1.31A1,1,0,0,1,48.64,41.4Z" fill="#69b3e4"/>
      </g>
    </g>
    <path d="M29.31,27.79h-.73a2,2,0,0,0-2,2V40.67a.58.58,0,0,1-.6.57.68.68,0,0,1-.38-.12A12.29,12.29,0,0,0,22,39.29a1.12,1.12,0,0,0-.35-.06c-1.63,0-2.43,3.71-1.51,4.37.55.39,1.18.79,1.83,1.26a10.3,10.3,0,0,1,4.56,6.75,4.18,4.18,0,0,0,.65,1.26l.33.47a5.08,5.08,0,0,0,4.12,2H37.4a4.32,4.32,0,0,0,3.53-1.84c.13-.19.26-.4.37-.6a7.18,7.18,0,0,0,.91-3.49V41.59a2,2,0,0,0-2-2H40a1.85,1.85,0,0,0-1.2.43v-.44a2,2,0,0,0-3.7-1.17V37.8a2,2,0,0,0-3.82-1V29.79A2,2,0,0,0,29.31,27.79Z" fill="#69b3e4" stroke="#fff" stroke-miterlimit="10"/>
  </g>
</svg>
