<svg xmlns="http://www.w3.org/2000/svg" viewBox="0 0 62.32 62.32">
  <title>Asset 5</title>
  <g>
    <circle cx="31.16" cy="31.16" r="31.16" fill="#69b3e4"/>
    <g>
      <path d="M9.81,16.3a29.61,29.61,0,0,1,5-1.32V27.64l4.59-2,4.91,2V14.73a29.6,29.6,0,0,1,6.76,1.57,32.6,32.6,0,0,1,21.28,0V45.7a31.48,31.48,0,0,0-21.28,0,32.22,32.22,0,0,0-21.28,0Z" fill="#fff"/>
      <g>
        <path d="M48.57,22.05a.74.74,0,0,1-.29-.05c-7.47-2.77-12-.1-12-.08a.87.87,0,0,1-1.25-.4,1.12,1.12,0,0,1,.36-1.41C35.6,20,40.57,17,48.86,20a1.07,1.07,0,0,1,.58,1.31A.92.92,0,0,1,48.57,22.05Z" fill="#69b3e4"/>
        <path d="M48.57,28.27a.74.74,0,0,1-.29-.05c-7.47-2.77-12-.1-12-.08a.87.87,0,0,1-1.25-.4,1.12,1.12,0,0,1,.36-1.41c.21-.13,5.18-3.16,13.47-.08a1.07,1.07,0,0,1,.58,1.31A.92.92,0,0,1,48.57,28.27Z" fill="#69b3e4"/>
        <path d="M48.57,34.49a.74.74,0,0,1-.29-.05c-7.47-2.77-12-.1-12-.08A.87.87,0,0,1,35,34a1.12,1.12,0,0,1,.36-1.41c.21-.13,5.18-3.16,13.47-.08a1.07,1.07,0,0,1,.58,1.31A.92.92,0,0,1,48.57,34.49Z" fill="#69b3e4"/>
        <path d="M48.57,40.94a1,1,0,0,1-.29,0c-7.47-2.78-12-.11-12-.08A.88.88,0,0,1,35,40.4a1.11,1.11,0,0,1,.36-1.4c.21-.13,5.18-3.16,13.47-.08a1.07,1.07,0,0,1,.58,1.31A.93.93,0,0,1,48.57,40.94Z" fill="#69b3e4"/>
      </g>
      <line x1="31.09" y1="7.7" x2="31.09" y2="53.7" fill="none" stroke="#69b3e4" stroke-miterlimit="10" stroke-width="2"/>
    </g>
  </g>
</svg>
