<svg xmlns="http://www.w3.org/2000/svg" viewBox="0 0 62.32 62.32">
  <title>Asset 3</title>
  <g>
    <circle cx="31.16" cy="31.16" r="31.16" fill="#69b3e4"/>
    <path d="M16.29,37.56v6.16a1.12,1.12,0,0,0,1.13,1.13h6.8v3.34a1.13,1.13,0,0,0,1.13,1.13H40.81a1.14,1.14,0,0,0,1.13-1.13v-8A15.91,15.91,0,1,0,16.31,26.75l0,0V28a17,17,0,0,1-3.74,5.53,1.13,1.13,0,0,0,0,1.61A9.1,9.1,0,0,0,16.29,37.56ZM22.4,21.65a12.47,12.47,0,0,1,10-4.72c6.07,0,11,4.1,11,9.14a7.05,7.05,0,0,1-1.47,4.52,9.91,9.91,0,0,1-2.07,1.93C37.54,33.58,36,31.08,36,31.08l2.09,5.05a.54.54,0,0,1,0,.43.55.55,0,0,1-.34.27l-.36.09a.91.91,0,0,1-1-.44l-2.31-4.14a3,3,0,0,1-1.6-1.09,3.92,3.92,0,0,1-3.91,1c-1.84-.4-3.15-1.7-3.2-3a2.29,2.29,0,0,1,.05-.52v0C22.25,29.59,19.71,25.39,22.4,21.65Z" fill="#fff"/>
  </g>
</svg>
