<svg xmlns="http://www.w3.org/2000/svg" viewBox="0 0 62.32 62.32">
  <title>Asset 4</title>
  <g>
    <circle cx="31.16" cy="31.16" r="31.16" fill="#69b3e4"/>
    <g>
      <path d="M20.28,24.89c.33,0,.65.08,1,.13a13.9,13.9,0,0,1,2.46.64,15.77,15.77,0,0,1,3.21,1.6,15.37,15.37,0,0,1,2.63,2.16.31.31,0,0,0,.24.1.32.32,0,0,0,.26-.12A11.36,11.36,0,0,1,32.51,27a12.45,12.45,0,0,1,3.19-1.67,9.87,9.87,0,0,1,2.35-.5c.21,0,.41,0,.62,0H39a.38.38,0,0,0,.38-.37V20.68l.81-.3.8-.3,6.8-2.55a2.92,2.92,0,0,1,.54,1.63,1.31,1.31,0,0,0,0,2.22l-.46,8.42a.74.74,0,0,0,.7.78h0a.74.74,0,0,0,.74-.7l.13-2.39.08.48a.73.73,0,0,0,.73.61h.12a.73.73,0,0,0,.61-.85l-1.08-6.39a1.28,1.28,0,0,0,.53-1,1.31,1.31,0,0,0-.3-.84,1.44,1.44,0,0,0-.33-.28,4.39,4.39,0,0,0-1.19-2.95,3.88,3.88,0,0,0-.42-.39,4.39,4.39,0,0,0-2.76-1H34.79a.75.75,0,0,0-.39.12.83.83,0,0,1-.33.55h0a5.19,5.19,0,0,1-3.09.79c-1.91,0-3.45-.62-3.45-1.39,0,0,0-.05,0-.08,0-.31.33-.59.78-.81a6.33,6.33,0,0,1,2.66-.5,7.41,7.41,0,0,1,1.92.24H44.32l-13-4.87a1.08,1.08,0,0,0-.75,0L14.13,15.07a.57.57,0,0,0-.38.54V17a.57.57,0,0,0,.38.54l4.13,1.55.81.3.81.3v4.8a.43.43,0,0,0,.4.42" fill="#fff"/>
      <g>
        <path d="M13.86,44.34v3.72a.45.45,0,0,0,.56.43,17.58,17.58,0,0,1,15,3.28.68.68,0,0,0,.87,0,17.54,17.54,0,0,1,15-3.47.46.46,0,0,0,.58-.44V25.34a.78.78,0,0,0-.57-.76,16.7,16.7,0,0,0-7.45-.08,19.67,19.67,0,0,0-2.13.57,17,17,0,0,0-4.41,2.2c-.35.25-.69.51-1,.78a.65.65,0,0,1-.86,0c-.28-.23-.57-.46-.86-.67a16.8,16.8,0,0,0-5.41-2.58,18.73,18.73,0,0,0-1.94-.44,16.63,16.63,0,0,0-6.79.22.78.78,0,0,0-.57.76v19Zm27-15.52a.75.75,0,0,1,.58.75v2.76a.46.46,0,0,1-.56.45,8.11,8.11,0,0,0-6.27,1.37.29.29,0,0,1-.46-.22V31.17a1.24,1.24,0,0,1,.15-.6,1,1,0,0,1,.31-.38A7.91,7.91,0,0,1,40.87,28.82Z" fill="#fff"/>
        <path d="M29.86,52.46a1.2,1.2,0,0,1-.78-.29A17.07,17.07,0,0,0,14.55,49a.92.92,0,0,1-.83-.17,1,1,0,0,1-.38-.77V25.34a1.3,1.3,0,0,1,1-1.27,17.24,17.24,0,0,1,7-.23c.68.12,1.35.27,2,.45A17.78,17.78,0,0,1,28.88,27c.31.23.61.47.89.7a.13.13,0,0,0,.18,0q.48-.41,1.05-.81a17.39,17.39,0,0,1,4.54-2.27,18.79,18.79,0,0,1,2.2-.59,17.25,17.25,0,0,1,7.68.09,1.3,1.3,0,0,1,1,1.27V47.86a1,1,0,0,1-.38.77,1,1,0,0,1-.85.18,17,17,0,0,0-14.52,3.36A1.19,1.19,0,0,1,29.86,52.46Zm-11.46-5a18.23,18.23,0,0,1,11.35,3.9.15.15,0,0,0,.2,0,18.16,18.16,0,0,1,15.38-3.6V25.34a.25.25,0,0,0-.17-.25A16.19,16.19,0,0,0,38,25a18.77,18.77,0,0,0-2.08.56,16,16,0,0,0-4.26,2.13c-.35.25-.68.5-1,.75a1.17,1.17,0,0,1-1.55,0c-.25-.22-.53-.43-.82-.65A16.83,16.83,0,0,0,23,25.3c-.62-.17-1.26-.31-1.89-.42a16,16,0,0,0-6.57.21.25.25,0,0,0-.17.25V48A16,16,0,0,1,18.4,47.46Zm16-12.73a.77.77,0,0,1-.36-.09.78.78,0,0,1-.45-.71V31.17a1.91,1.91,0,0,1,.21-.85,1.76,1.76,0,0,1,.46-.55A8.42,8.42,0,0,1,41,28.3h0a1.3,1.3,0,0,1,1,1.27v2.76a1,1,0,0,1-.36.76,1,1,0,0,1-.85.2,7.52,7.52,0,0,0-5.83,1.28A.83.83,0,0,1,34.44,34.73Zm4.9-5.55a7.42,7.42,0,0,0-4.4,1.43.67.67,0,0,0-.17.2.86.86,0,0,0-.08.36v2.29a8.48,8.48,0,0,1,2.9-1.18,8.36,8.36,0,0,1,3.34,0V29.57a.24.24,0,0,0-.17-.24h0A6.71,6.71,0,0,0,39.34,29.18Z" fill="#69b3e4" stroke="#69b3e4" stroke-miterlimit="10"/>
      </g>
    </g>
  </g>
</svg>
