<svg xmlns="http://www.w3.org/2000/svg" viewBox="0 0 62.32 62.32">
  <title>Asset 7</title>
  <g>
    <circle cx="31.16" cy="31.16" r="31.16" fill="#69b3e4"/>
    <g>
      <g>
        <polygon points="20.44 18.93 20.44 46.36 30.66 48.32 30.66 20.88 20.44 18.93" fill="#fff" stroke="#69b3e4" stroke-miterlimit="10" stroke-width="2"/>
        <polygon points="10.23 20.88 10.23 48.32 20.44 46.36 20.44 18.93 10.23 20.88" fill="#fff" stroke="#69b3e4" stroke-miterlimit="10" stroke-width="2"/>
        <polygon points="40.87 18.93 40.87 46.36 51.09 48.32 51.09 20.88 40.87 18.93" fill="#fff" stroke="#69b3e4" stroke-miterlimit="10" stroke-width="2"/>
        <polygon points="30.66 20.88 30.66 48.32 40.87 46.36 40.87 18.93 30.66 20.88" fill="#fff" stroke="#69b3e4" stroke-miterlimit="10" stroke-width="2"/>
      </g>
      <path d="M30.66,4.52a8.8,8.8,0,0,0-8.8,8.8c0,8.8,8.8,12.32,8.8,22.87,0-10.55,8.8-14.07,8.8-22.87A8.8,8.8,0,0,0,30.66,4.52Zm0,11a2.74,2.74,0,1,1,2.74-2.74A2.74,2.74,0,0,1,30.66,15.47Z" fill="#fff" stroke="#69b3e4" stroke-miterlimit="10" stroke-width="2"/>
    </g>
  </g>
</svg>
