<svg xmlns="http://www.w3.org/2000/svg" viewBox="0 0 62.32 62.32">
  <title>Asset 12</title>
  <g>
    <circle cx="31.16" cy="31.16" r="31.16" fill="#69b3e4"/>
    <g>
      <rect x="15.4" y="12.67" width="31.01" height="36.77" fill="#fff"/>
      <path d="M45.23,49.65l-30.11-.08h-.18l.11-2c-.08,0-.11,0-.12,0s.47-.37.47-2.32V12.67h33v33.8A3.21,3.21,0,0,1,45.23,49.65ZM17.14,47.58l28.09.07c1.06,0,1.17-1.12,1.18-1.25V14.67h-29V45.28A8.89,8.89,0,0,1,17.14,47.58Z" fill="#fff"/>
      <path d="M16.58,49.65c-5.44,0-5.5-3.9-5.5-3.94V23.26h9.2V43a7.41,7.41,0,0,0,.13.9c.22,1.28.56,3.22-.58,4.53A4.11,4.11,0,0,1,16.58,49.65ZM13.08,25.2V45.71c0,.19.17,2,3.5,2a2.28,2.28,0,0,0,1.72-.5c.54-.63.31-2,.14-3A6.92,6.92,0,0,1,18.28,43V25.2Z" fill="#fff"/>
      <rect x="18.64" y="16.06" width="26.5" height="7.2" fill="#69b3e4"/>
      <rect x="33.31" y="25.45" width="11.83" height="11" fill="#69b3e4"/>
      <rect x="18.64" y="25.95" width="11.5" height="1" fill="#69b3e4"/>
      <rect x="18.64" y="29.53" width="11.5" height="1" fill="#69b3e4"/>
      <rect x="18.64" y="36.44" width="11.5" height="1" fill="#69b3e4"/>
      <rect x="18.64" y="39.58" width="11.5" height="1" fill="#69b3e4"/>
      <rect x="18.64" y="46.24" width="11.5" height="1" fill="#69b3e4"/>
      <rect x="18.64" y="42.8" width="11.83" height="1" fill="#69b3e4"/>
      <rect x="33.31" y="39.58" width="11.83" height="1" fill="#69b3e4"/>
      <rect x="33.31" y="46.24" width="11.83" height="1" fill="#69b3e4"/>
      <rect x="18.64" y="33.03" width="11.5" height="1" fill="#69b3e4"/>
      <rect x="33.31" y="42.8" width="11.83" height="1" fill="#69b3e4"/>
    </g>
  </g>
</svg>
