<svg xmlns="http://www.w3.org/2000/svg" viewBox="0 0 62.32 62.32">
  <title>Asset 1</title>
  <g>
    <circle cx="31.16" cy="31.16" r="31.16" fill="#69b3e4"/>
    <path d="M18.57,36.74l8.32,2.54,6,2a2,2,0,0,0,.59.09,1.85,1.85,0,0,0,.86-.21l10.48-5.53,9.45-5a1.85,1.85,0,0,0-1.73-3.28l-1.46.76L39.46,34.28l-6,3.17-.09,0L28,35.74,24.3,34.52l-12-4-.07,0a1,1,0,0,1-.39-.23,3,3,0,0,1-.78-1.36,6.67,6.67,0,0,1-.14-3.59l7.66,2.33L32,31.77a1.9,1.9,0,0,0,1,0h0l.08,0a1.89,1.89,0,0,0,.47-.24L43.82,26.3,52.2,22a1.74,1.74,0,0,0,.95-1.75,1.76,1.76,0,0,0-1.31-1.49L30.6,13.51l-20.71,8a2.91,2.91,0,0,0-1.27.65c-1.67,1.44-1.87,4.63-1.35,7a8.66,8.66,0,0,0,1,2.48c-1.29,1.58-1.42,4.43-1,6.58.57,2.56,2,4.34,3.89,4.9l21.77,7.18a2,2,0,0,0,.59.09,1.85,1.85,0,0,0,.86-.21L54.31,39.7a1.85,1.85,0,0,0-1.73-3.28l-1.46.76L33.35,46.56l-21.06-7-.07,0a1,1,0,0,1-.39-.23A3,3,0,0,1,11.05,38a6.64,6.64,0,0,1-.14-3.58Zm.62-14.34,4.28-1.72a3.24,3.24,0,0,1,2-.13L36,23.19a.38.38,0,0,1,.06.71l-.66.3-3.5,1.61a2.93,2.93,0,0,1-2,.16l-4.05-1.1-6.58-1.79A.36.36,0,0,1,19.19,22.4Z" fill="#fff"/>
  </g>
</svg>
