<svg xmlns="http://www.w3.org/2000/svg" viewBox="0 0 62.32 62.32">
  <title>Asset 21</title>
  <g>
    <circle cx="31.16" cy="31.16" r="31.16" fill="#69b3e4"/>
    <g>
      <path d="M45.65,20.77C45.65,31.16,31.51,56,31.51,56S16.66,31.68,16.66,20.77a14.5,14.5,0,0,1,29,0Z" fill="#fff" stroke="#fff" stroke-miterlimit="10" stroke-width="2"/>
      <circle cx="31.16" cy="20.87" r="12.57" fill="#69b3e4" stroke="#69b3e4" stroke-miterlimit="10" stroke-width="3"/>
      <g>
        <path d="M31.16,33.5h0c-2.28,0-4.14-2.2-4.14-4.89V12.43c0-2.69,1.86-3.29,4.14-3.29h0c2.27,0,4.14.6,4.14,3.29V28.61C35.3,31.3,33.43,33.5,31.16,33.5Z" fill="#fff"/>
        <g>
          <rect x="25.19" y="8.79" width="11.94" height="3.58" rx="1.28" ry="1.28" fill="#fff"/>
          <path d="M35.73,12.91H26.58A1.94,1.94,0,0,1,24.64,11v-.79a1.94,1.94,0,0,1,1.94-1.94h9.15a1.94,1.94,0,0,1,1.94,1.94V11A1.94,1.94,0,0,1,35.73,12.91ZM26.58,9.33a.86.86,0,0,0-.85.85V11a.86.86,0,0,0,.85.85h9.15a.85.85,0,0,0,.85-.85v-.79a.85.85,0,0,0-.85-.85Z" fill="#69b3e4"/>
        </g>
        <path d="M27.93,22.48v6.13a3.56,3.56,0,0,0,3.23,3.81h0a3.56,3.56,0,0,0,3.23-3.81V22.38H27.93Z" fill="#69b3e4"/>
      </g>
    </g>
    <line x1="34.39" y1="20.77" x2="29.71" y2="20.77" fill="none" stroke="#69b3e4" stroke-miterlimit="10"/>
    <line x1="34.39" y1="17.99" x2="29.71" y2="17.99" fill="none" stroke="#69b3e4" stroke-miterlimit="10"/>
    <line x1="34.39" y1="15.33" x2="29.71" y2="15.33" fill="none" stroke="#69b3e4" stroke-miterlimit="10"/>
  </g>
</svg>
