<svg xmlns="http://www.w3.org/2000/svg" viewBox="0 0 62.32 62.32">
  <title>Asset 11</title>
  <g>
    <circle cx="31.16" cy="31.16" r="31.16" fill="#69b3e4"/>
    <g>
      <rect x="29.75" y="17.57" width="22.39" height="26.56" transform="translate(11.12 -10.85) rotate(17.43)" fill="#fff"/>
      <path d="M46.8,46.75,26.07,40.19l-.12,0,.51-1.35a.2.2,0,0,0-.1,0s.41-.15.83-1.5l7.05-22.47L57,22l-7.32,23.3A2.3,2.3,0,0,1,46.8,46.75Zm-18.91-7.5,19.34,6.13a.9.9,0,0,0,1.08-.6l6.86-21.87-20-6.27L28.57,37.72A6.12,6.12,0,0,1,27.89,39.25Z" fill="#fff"/>
      <path d="M27.06,40.56c-3.75-1.18-2.95-3.88-2.94-3.91L29,21.18l6.34,2L31,36.79c0,.13-.07.4-.11.65-.12.93-.3,2.34-1.37,3A3,3,0,0,1,27.06,40.56ZM29.93,23,25.5,37.08c0,.14-.32,1.42,2,2.14a1.65,1.65,0,0,0,1.3,0c.5-.31.63-1.29.73-2a5.7,5.7,0,0,1,.15-.88l3.86-12.28Z" fill="#fff"/>
      <rect x="34.53" y="20.61" width="19.14" height="5.2" transform="translate(8.98 -12.14) rotate(17.43)" fill="#69b3e4"/>
      <rect x="42.44" y="28.6" width="8.54" height="7.94" transform="translate(11.9 -12.5) rotate(17.43)" fill="#69b3e4"/>
      <rect x="37.1" y="22.11" width="0.72" height="8.31" transform="translate(1.18 54.13) rotate(-72.57)" fill="#69b3e4"/>
      <rect x="36.43" y="24.23" width="0.72" height="8.31" transform="translate(-1.31 54.99) rotate(-72.57)" fill="#69b3e4"/>
      <rect x="35.04" y="28.65" width="0.72" height="8.31" transform="translate(-6.5 56.76) rotate(-72.57)" fill="#69b3e4"/>
      <rect x="34.35" y="30.85" width="0.72" height="8.31" transform="translate(-9.08 57.64) rotate(-72.57)" fill="#69b3e4"/>
      <rect x="32.99" y="35.19" width="0.72" height="8.31" transform="translate(-14.17 59.38) rotate(-72.57)" fill="#69b3e4"/>
      <rect x="34.08" y="33.05" width="0.72" height="8.54" transform="translate(-11.48 59) rotate(-72.57)" fill="#69b3e4"/>
      <rect x="44.59" y="34.87" width="0.72" height="8.54" transform="translate(-5.86 70.3) rotate(-72.57)" fill="#69b3e4"/>
      <rect x="43.23" y="38.25" width="0.72" height="8.54" transform="translate(-10.03 71.37) rotate(-72.57)" fill="#69b3e4"/>
      <rect x="35.78" y="26.3" width="0.72" height="8.31" transform="translate(-3.74 55.81) rotate(-72.57)" fill="#69b3e4"/>
      <path d="M44.67,42c-1.39,0-20.26.28-21.35.29H23.2l.06-1.42q-.09,0-.09,0s.33-.27.31-1.66l-.37-23.11,23.39-.37.38,24A2.27,2.27,0,0,1,44.67,42ZM24.73,40.8l19.92-.26c.75,0,.81-.81.81-.9L45.1,17.15l-20.55.33.34,21.69A6,6,0,0,1,24.73,40.8Z" fill="#69b3e4"/>
      <rect x="22.18" y="14.58" width="22.39" height="26.56" transform="translate(-0.31 0.38) rotate(-0.65)" fill="#fff"/>
      <path d="M43.87,41.16l-21.75.2H22l.06-1.44-.09,0s.34-.27.32-1.68L22,14.71l23.83-.27.28,24.41A2.31,2.31,0,0,1,43.87,41.16ZM23.56,39.9l20.29-.18c.77,0,.84-.81.84-.91L44.43,15.9l-20.94.24.25,22.1A6.1,6.1,0,0,1,23.56,39.9Z" fill="#fff"/>
      <path d="M23.18,41.4c-3.93,0-4-2.77-4-2.8L19,22.39l6.65-.08.16,14.28a4.44,4.44,0,0,0,.1.64c.17.93.43,2.32-.38,3.28A3,3,0,0,1,23.18,41.4ZM20.45,23.77l.17,14.81c0,.14.14,1.44,2.54,1.42a1.64,1.64,0,0,0,1.24-.38c.39-.46.21-1.43.08-2.13a4.57,4.57,0,0,1-.12-.89l-.15-12.87Z" fill="#fff"/>
      <rect x="24.42" y="17.02" width="19.14" height="5.2" transform="translate(-0.22 0.39) rotate(-0.65)" fill="#69b3e4"/>
      <rect x="35.11" y="23.74" width="8.54" height="7.94" transform="translate(-0.31 0.45) rotate(-0.65)" fill="#69b3e4"/>
      <rect x="24.48" y="24.22" width="8.31" height="0.72" transform="translate(-0.28 0.33) rotate(-0.65)" fill="#69b3e4"/>
      <rect x="24.5" y="26.45" width="8.31" height="0.72" transform="translate(-0.3 0.33) rotate(-0.65)" fill="#69b3e4"/>
      <rect x="24.55" y="31.08" width="8.31" height="0.72" transform="translate(-0.35 0.33) rotate(-0.65)" fill="#69b3e4"/>
      <rect x="24.58" y="33.38" width="8.31" height="0.72" transform="translate(-0.38 0.33) rotate(-0.65)" fill="#69b3e4"/>
      <rect x="24.63" y="37.93" width="8.31" height="0.72" transform="translate(-0.43 0.33) rotate(-0.65)" fill="#69b3e4"/>
      <rect x="24.92" y="35.67" width="8.54" height="0.72" transform="translate(-0.41 0.33) rotate(-0.65)" fill="#69b3e4"/>
      <rect x="35.18" y="34.19" width="8.54" height="0.72" transform="translate(-0.39 0.45) rotate(-0.65)" fill="#69b3e4"/>
      <rect x="35.23" y="37.77" width="8.54" height="0.72" transform="translate(-0.43 0.45) rotate(-0.65)" fill="#69b3e4"/>
      <rect x="24.53" y="28.62" width="8.31" height="0.72" transform="translate(-0.33 0.33) rotate(-0.65)" fill="#69b3e4"/>
      <path d="M40.39,43.36,14.16,50.67l-.16,0-.35-1.63a.27.27,0,0,0-.11.05s.33-.41-.11-2L6,20.85l28.73-8.08L42.43,40A2.78,2.78,0,0,1,40.39,43.36ZM15.46,48.57l24.47-6.82a1.07,1.07,0,0,0,.74-1.29L33.48,14.87,8.23,22l6.94,24.68A7,7,0,0,1,15.46,48.57Z" fill="#69b3e4"/>
      <g>
        <rect x="10.14" y="14.96" width="26.24" height="31.11" transform="translate(-7.24 7.23) rotate(-15.32)" fill="#fff"/>
        <path d="M39.1,42.49,14.51,49.16l-.15,0L14,47.54a.16.16,0,0,0-.09.05s.3-.41-.14-2L6.49,19,33.43,11.6,41,39.19A2.71,2.71,0,0,1,39.1,42.49ZM15.71,47.08l22.94-6.22a1,1,0,0,0,.68-1.28l-7.09-25.9L8.57,20.17l6.84,25A6.86,6.86,0,0,1,15.71,47.08Z" fill="#fff"/>
        <path d="M15.72,48.89c-4.44,1.22-5.36-2-5.37-2l-5-18.32,7.51-2.06,4.42,16.13a6,6,0,0,0,.3.71c.47,1,1.18,2.49.55,3.82A3.49,3.49,0,0,1,15.72,48.89ZM7.4,29.72,12,46.46c0,.15.59,1.59,3.31.85a1.93,1.93,0,0,0,1.29-.8c.3-.63-.19-1.68-.55-2.44a6.86,6.86,0,0,1-.4-1l-4-14.55Z" fill="#fff"/>
        <rect x="10.3" y="17.95" width="22.42" height="6.09" transform="translate(-4.78 6.43) rotate(-15.32)" fill="#69b3e4"/>
        <rect x="25.02" y="23.92" width="10.01" height="9.31" transform="translate(-6.48 8.95) rotate(-15.32)" fill="#69b3e4"/>
        <rect x="12.04" y="27.79" width="9.73" height="0.85" transform="translate(-6.85 5.47) rotate(-15.32)" fill="#69b3e4"/>
        <rect x="12.84" y="30.72" width="9.73" height="0.85" transform="translate(-7.6 5.78) rotate(-15.32)" fill="#69b3e4"/>
        <rect x="14.39" y="36.35" width="9.73" height="0.85" transform="translate(-9.03 6.39) rotate(-15.32)" fill="#69b3e4"/>
        <rect x="15.09" y="38.92" width="9.73" height="0.85" transform="translate(-9.68 6.67) rotate(-15.32)" fill="#69b3e4"/>
        <rect x="16.58" y="44.35" width="9.73" height="0.85" transform="translate(-11.07 7.26) rotate(-15.32)" fill="#69b3e4"/>
        <rect x="15.8" y="41.51" width="10.01" height="0.85" transform="translate(-10.34 6.99) rotate(-15.32)" fill="#69b3e4"/>
        <rect x="27.06" y="35.6" width="10.01" height="0.85" transform="translate(-8.38 9.75) rotate(-15.32)" fill="#69b3e4"/>
        <rect x="28.55" y="41.04" width="10.01" height="0.85" transform="translate(-9.76 10.34) rotate(-15.32)" fill="#69b3e4"/>
        <rect x="13.62" y="33.57" width="9.73" height="0.85" transform="translate(-8.32 6.09) rotate(-15.32)" fill="#69b3e4"/>
        <rect x="27.78" y="38.23" width="10.01" height="0.85" transform="translate(-9.05 10.03) rotate(-15.32)" fill="#69b3e4"/>
      </g>
    </g>
  </g>
</svg>
