<svg xmlns="http://www.w3.org/2000/svg" viewBox="0 0 62.32 62.32">
  <title>Asset 17</title>
  <g>
    <circle cx="31.16" cy="31.16" r="31.16" fill="#69b3e4"/>
    <path d="M45.19,39.11h5.57a1.13,1.13,0,0,0,1-.69,115.69,115.69,0,0,0-2.5-11.62,1.34,1.34,0,0,0-1.38-.8H40.83a1.34,1.34,0,0,0-1.38.8A118.34,118.34,0,0,0,37,38.42a1.13,1.13,0,0,0,1,.69h7.22Z" fill="#fff"/>
    <path d="M45,37.67h4.24a.85.85,0,0,1,.77.52A88.84,88.84,0,0,1,48.1,47a1,1,0,0,1-1.05.61H41.68a1,1,0,0,1-1-.61,86.11,86.11,0,0,1-1.9-8.85.85.85,0,0,1,.77-.52H45Z" fill="#fff"/>
    <path d="M18.57,39.11h5.58a1.11,1.11,0,0,0,1-.69A112.8,112.8,0,0,0,22.66,26.8a1.34,1.34,0,0,0-1.38-.8H14.22a1.34,1.34,0,0,0-1.38.8,118.34,118.34,0,0,0-2.49,11.62,1.11,1.11,0,0,0,1,.69h7.21Z" fill="#fff"/>
    <path d="M18.38,37.67h4.24a.87.87,0,0,1,.77.52A88.84,88.84,0,0,1,21.49,47a1,1,0,0,1-1,.61H15.06A1,1,0,0,1,14,47a85.93,85.93,0,0,1-1.89-8.85.84.84,0,0,1,.76-.52h5.5Z" fill="#fff"/>
    <g>
      <circle cx="31.15" cy="13.97" r="6.97" fill="#69b3e4" stroke="#69b3e4" stroke-miterlimit="10" stroke-width="5"/>
      <path d="M32.18,38.85h7A1.4,1.4,0,0,0,40.4,38c.07-.53-2.52-13.33-3.11-14.53a1.68,1.68,0,0,0-1.73-1H26.74a1.66,1.66,0,0,0-1.72,1c-.6,1.2-3.19,14-3.12,14.53a1.4,1.4,0,0,0,1.26.87h9Z" fill="#69b3e4" stroke="#69b3e4" stroke-miterlimit="10" stroke-width="5"/>
      <path d="M31.93,37h5.31a1.08,1.08,0,0,1,1,.66,108.93,108.93,0,0,1-2.38,11.06,1.27,1.27,0,0,1-1.31.76H27.79a1.27,1.27,0,0,1-1.31-.76A111.52,111.52,0,0,1,24.11,37.7a1.06,1.06,0,0,1,1-.66h6.86Z" fill="#69b3e4" stroke="#69b3e4" stroke-miterlimit="10" stroke-width="5"/>
    </g>
    <g>
      <circle cx="31.15" cy="13.97" r="6.97" fill="#fff"/>
      <path d="M32.18,38.85h7A1.4,1.4,0,0,0,40.4,38c.07-.53-2.52-13.33-3.11-14.53a1.68,1.68,0,0,0-1.73-1H26.74a1.66,1.66,0,0,0-1.72,1c-.6,1.2-3.19,14-3.12,14.53a1.4,1.4,0,0,0,1.26.87h9Z" fill="#fff"/>
      <path d="M31.93,37h5.31a1.08,1.08,0,0,1,1,.66,108.93,108.93,0,0,1-2.38,11.06,1.27,1.27,0,0,1-1.31.76H27.79a1.27,1.27,0,0,1-1.31-.76A111.52,111.52,0,0,1,24.11,37.7a1.06,1.06,0,0,1,1-.66h6.86Z" fill="#fff"/>
    </g>
    <circle cx="44.36" cy="19.21" r="5.57" fill="#fff"/>
    <circle cx="17.75" cy="19.21" r="5.57" fill="#fff"/>
  </g>
</svg>
